<svg width="178" height="62" viewBox="0 0 178 62" fill="none" xmlns="http://www.w3.org/2000/svg">
<path d="M169.352 36.6991C169.484 36.75 169.51 36.9504 169.419 37.2219L168.945 38.5035C168.841 38.7672 168.685 38.9188 168.542 38.8937C168.467 38.8755 168.393 38.8528 168.313 38.8335C168.238 38.8153 168.159 38.7915 168.081 38.7677C168.001 38.7484 167.922 38.7246 167.842 38.7053C167.763 38.6815 167.683 38.6622 167.605 38.6384C167.463 38.5853 167.429 38.3782 167.517 38.1155L167.986 36.8372C168.089 36.5736 168.255 36.4242 168.408 36.4472C168.488 36.4665 168.567 36.4903 168.651 36.5108C168.73 36.5346 168.81 36.5539 168.89 36.5732C168.97 36.5925 169.044 36.6152 169.124 36.6345C169.198 36.6572 169.278 36.6765 169.352 36.6991ZM167.071 36.0763C167.226 36.1328 167.265 36.3411 167.176 36.6082L166.708 37.8865C166.605 38.1457 166.435 38.2939 166.268 38.263C166.18 38.237 166.091 38.2154 166.003 38.1893C165.915 38.1633 165.825 38.1417 165.737 38.1156C165.649 38.0895 165.555 38.0668 165.467 38.0407C165.374 38.0135 165.285 37.9919 165.192 37.9647C165.027 37.9059 164.979 37.6954 165.067 37.4328L165.531 36.1534C165.634 35.8897 165.814 35.7438 165.99 35.7769C166.083 35.8041 166.172 35.8257 166.265 35.8529C166.358 35.8801 166.447 35.9017 166.535 35.9277C166.623 35.9538 166.713 35.9754 166.805 36.0026C166.894 36.0287 166.982 36.0547 167.071 36.0763ZM164.475 35.3583C164.653 35.425 164.707 35.6322 164.618 35.8993L164.159 37.1799C164.056 37.4391 163.872 37.5839 163.688 37.544C163.59 37.5157 163.493 37.4873 163.395 37.459C163.298 37.4307 163.195 37.4012 163.098 37.3728C162.995 37.3434 162.898 37.315 162.796 37.2855C162.693 37.2561 162.591 37.2266 162.489 37.1971C162.306 37.1293 162.244 36.9154 162.327 36.6516L162.785 35.3755C162.889 35.1118 163.083 34.9693 163.272 35.0103C163.374 35.0398 163.476 35.0693 163.579 35.0943C163.682 35.1238 163.779 35.1521 163.883 35.1771C163.985 35.2066 164.082 35.2349 164.181 35.2588C164.274 35.305 164.376 35.3345 164.475 35.3583ZM161.593 34.5475C161.785 34.6176 161.854 34.8282 161.768 35.1009L161.316 36.3737C161.213 36.6329 161.016 36.7698 160.818 36.7265C160.711 36.6959 160.604 36.6653 160.492 36.6336C160.385 36.603 160.273 36.5712 160.167 36.5406C160.055 36.5088 159.948 36.4782 159.836 36.4465C159.725 36.4147 159.618 36.3841 159.506 36.3524C159.309 36.2812 159.233 36.0638 159.316 35.8L159.764 34.5262C159.866 34.2669 160.069 34.1267 160.277 34.1723C160.389 34.204 160.5 34.2357 160.612 34.2675C160.724 34.2992 160.831 34.3299 160.942 34.3616C161.054 34.3933 161.161 34.424 161.273 34.4557C161.375 34.4852 161.487 34.5169 161.593 34.5475ZM158.46 33.6474C158.671 33.722 158.747 33.9394 158.663 34.2076L158.216 35.477C158.114 35.7363 157.913 35.8675 157.696 35.8197C157.579 35.7868 157.464 35.7495 157.348 35.7166C157.231 35.6837 157.116 35.6464 156.995 35.6123C156.879 35.5795 156.759 35.541 156.642 35.5081C156.526 35.4752 156.406 35.4367 156.285 35.4027C156.075 35.3236 155.985 35.1028 156.063 34.8424L156.503 33.5763C156.606 33.3171 156.817 33.1836 157.039 33.2326C157.16 33.2666 157.276 33.2995 157.396 33.338C157.513 33.3708 157.634 33.4049 157.749 33.4422C157.865 33.4751 157.986 33.5091 158.102 33.5465C158.227 33.5816 158.344 33.6145 158.46 33.6474ZM155.112 32.667C155.332 32.7439 155.422 32.9692 155.343 33.2341L154.907 34.5013C154.806 34.756 154.594 34.8895 154.369 34.8349C154.249 34.7965 154.123 34.7613 153.998 34.7217C153.873 34.6865 153.753 34.648 153.628 34.6084C153.503 34.5688 153.378 34.5336 153.253 34.494C153.127 34.4588 153.003 34.4192 152.878 34.3796C152.654 34.2971 152.559 34.0752 152.637 33.8147L153.066 32.5553C153.168 32.2961 153.383 32.1682 153.618 32.2251C153.744 32.2602 153.868 32.2998 153.994 32.335C154.119 32.3746 154.245 32.4098 154.37 32.4449C154.496 32.4801 154.621 32.5197 154.746 32.5549C154.865 32.5978 154.991 32.633 155.112 32.667ZM151.592 31.6166C151.821 31.7003 151.921 31.9233 151.842 32.1882L151.413 33.4476C151.311 33.7024 151.097 33.8302 150.858 33.7678C150.729 33.727 150.603 33.6919 150.474 33.6511C150.344 33.6104 150.215 33.5696 150.084 33.5333C149.955 33.4925 149.826 33.4518 149.695 33.4155C149.566 33.3747 149.437 33.3339 149.306 33.2977C149.073 33.2129 148.968 32.9887 149.046 32.7283L149.464 31.4755C149.56 31.2196 149.785 31.094 150.024 31.152C150.153 31.1928 150.288 31.2347 150.418 31.271C150.547 31.3117 150.678 31.348 150.807 31.3888C150.936 31.4296 151.067 31.4658 151.196 31.5066C151.333 31.5396 151.462 31.5803 151.592 31.6166ZM147.929 30.503C148.166 30.589 148.275 30.8187 148.202 31.0803L147.785 32.3286C147.69 32.58 147.465 32.7056 147.222 32.642C147.088 32.6001 146.959 32.5593 146.825 32.5174C146.691 32.4755 146.561 32.4348 146.427 32.3929C146.293 32.351 146.159 32.3091 146.03 32.2683C145.896 32.2264 145.762 32.1845 145.628 32.1426C145.391 32.0522 145.281 31.8269 145.354 31.5698L145.764 30.3249C145.86 30.0735 146.084 29.9479 146.332 30.0126C146.466 30.0545 146.6 30.0964 146.734 30.1383C146.868 30.1802 147.002 30.2221 147.136 30.264C147.27 30.3059 147.404 30.3478 147.538 30.3897C147.661 30.4192 147.795 30.4611 147.929 30.503ZM144.174 29.3343C144.42 29.4269 144.526 29.6467 144.456 29.9138L144.052 31.1554C143.956 31.4068 143.734 31.5235 143.486 31.4588C143.352 31.4169 143.218 31.375 143.08 31.3275C142.946 31.2856 142.812 31.2437 142.674 31.1961C142.54 31.1542 142.407 31.1079 142.269 31.0648C142.135 31.0229 141.997 30.9754 141.863 30.9335C141.621 30.842 141.507 30.6155 141.575 30.3573L141.973 29.1235C142.068 28.8721 142.291 28.751 142.544 28.8168C142.678 28.8587 142.817 28.9018 142.951 28.9437C143.085 28.9856 143.224 29.0286 143.358 29.0705C143.492 29.1124 143.631 29.1555 143.765 29.1974C143.901 29.2493 144.04 29.2924 144.174 29.3343ZM140.374 28.1262C140.62 28.2189 140.73 28.4442 140.662 28.7024L140.271 29.9284C140.177 30.1753 139.955 30.292 139.708 30.2228C139.574 30.1809 139.436 30.1334 139.298 30.0859C139.165 30.0395 139.027 29.9965 138.894 29.9501C138.761 29.9037 138.622 29.8607 138.484 29.8132C138.351 29.7668 138.212 29.7238 138.075 29.6762C137.835 29.5802 137.72 29.3538 137.787 29.1L138.171 27.8819C138.265 27.6349 138.488 27.5183 138.735 27.583C138.874 27.626 139.007 27.6724 139.146 27.7154C139.285 27.7585 139.418 27.8048 139.556 27.8479C139.695 27.8909 139.828 27.9373 139.967 27.9803C140.097 28.0401 140.235 28.0831 140.374 28.1262ZM136.622 26.906C136.721 26.9489 136.751 27.0083 136.735 27.1559C136.846 27.2727 136.895 27.3176 136.86 27.4652L136.481 28.68C136.428 28.8186 136.361 28.8262 136.205 28.8547C136.135 28.9797 136.082 29.0142 135.974 28.9881C135.873 28.9541 135.772 28.9202 135.666 28.8851C135.565 28.8512 135.463 28.8172 135.362 28.7833C135.261 28.7493 135.16 28.7154 135.059 28.6814C134.957 28.6475 134.856 28.6136 134.755 28.5796C134.575 28.5028 134.505 28.2967 134.572 28.043L134.943 26.8359C135.027 26.5912 135.207 26.4643 135.395 26.5098C135.496 26.5437 135.597 26.5777 135.699 26.6116C135.8 26.6455 135.901 26.6795 136.002 26.7134C136.103 26.7474 136.205 26.7813 136.306 26.8153C136.415 26.8369 136.516 26.8709 136.622 26.906ZM133.815 25.9712C133.987 26.0413 134.055 26.2519 133.989 26.5056L133.618 27.7082C133.534 27.9529 133.36 28.0765 133.183 28.0288C133.086 27.996 132.99 27.9632 132.893 27.9304C132.797 27.8976 132.7 27.8648 132.604 27.832C132.508 27.7992 132.411 27.7663 132.319 27.7347C132.223 27.7019 132.131 27.6702 132.035 27.6374C131.868 27.564 131.799 27.3579 131.869 27.1097L132.232 25.915C132.317 25.6703 132.487 25.5411 132.66 25.5876C132.756 25.6204 132.848 25.6521 132.944 25.6849C133.041 25.7177 133.137 25.7505 133.229 25.7822C133.326 25.815 133.422 25.8478 133.519 25.8806C133.622 25.9056 133.718 25.9384 133.815 25.9712ZM131.168 25.0752C131.335 25.144 131.399 25.3535 131.333 25.6028L130.971 26.7931C130.888 27.0333 130.723 27.1592 130.55 27.1126C130.459 27.081 130.367 27.0493 130.276 27.0132C130.184 26.9815 130.093 26.9498 130.002 26.9137C129.91 26.882 129.818 26.8503 129.727 26.8187C129.635 26.787 129.543 26.7553 129.457 26.7203C129.295 26.6481 129.235 26.4442 129.3 26.1994L129.655 25.0169C129.739 24.7722 129.898 24.6497 130.067 24.6906C130.159 24.7223 130.251 24.754 130.338 24.7845C130.43 24.8162 130.522 24.8479 130.613 24.8795C130.705 24.9112 130.797 24.9429 130.889 24.9745C130.984 25.0118 131.076 25.0435 131.168 25.0752ZM128.635 24.1974C128.793 24.264 128.853 24.4679 128.788 24.7172L128.433 25.8952C128.352 26.131 128.196 26.2591 128.033 26.2148C127.946 26.1843 127.86 26.1493 127.768 26.1176C127.681 26.0871 127.594 26.0565 127.508 26.0215C127.421 25.991 127.334 25.9604 127.248 25.9254C127.161 25.8949 127.074 25.8644 126.988 25.8294C126.835 25.7594 126.774 25.56 126.838 25.3152L127.186 24.145C127.263 23.9081 127.423 23.7811 127.582 23.8242C127.669 23.8548 127.756 23.8853 127.843 23.9158C127.93 23.9464 128.018 23.9769 128.105 24.0075C128.192 24.038 128.279 24.0685 128.366 24.0991C128.461 24.1363 128.548 24.1669 128.635 24.1974ZM126.231 23.3459C126.38 23.4102 126.435 23.613 126.375 23.8589L126.03 25.0202C125.953 25.2571 125.798 25.3807 125.646 25.3343C125.563 25.3049 125.476 25.2743 125.395 25.2404C125.312 25.211 125.23 25.1816 125.149 25.1478C125.066 25.1184 124.985 25.0845 124.903 25.0551C124.82 25.0257 124.739 24.9918 124.656 24.9624C124.514 24.8948 124.457 24.6965 124.52 24.4562L124.859 23.3027C124.936 23.0658 125.086 22.941 125.24 22.983C125.322 23.0124 125.405 23.0418 125.487 23.0712C125.569 23.1006 125.652 23.13 125.734 23.1594C125.817 23.1888 125.904 23.2193 125.986 23.2487C126.062 23.286 126.144 23.3154 126.231 23.3459ZM123.944 22.5228C124.087 22.5904 124.139 22.7876 124.075 23.0279L123.742 24.178C123.666 24.4105 123.523 24.5319 123.373 24.4911C123.296 24.4628 123.214 24.4289 123.137 24.4007C123.059 24.3724 122.977 24.343 122.9 24.3103C122.822 24.282 122.745 24.2537 122.663 24.2199C122.586 24.1916 122.509 24.1589 122.431 24.1306C122.293 24.0641 122.246 23.8681 122.308 23.6322L122.639 22.491C122.715 22.2586 122.855 22.1316 123 22.1713C123.077 22.1995 123.155 22.2278 123.233 22.256C123.311 22.2843 123.388 22.3126 123.471 22.342C123.548 22.3702 123.631 22.3996 123.708 22.4279C123.784 22.4651 123.862 22.4934 123.944 22.5228ZM121.776 21.7236C121.91 21.7845 121.957 21.9805 121.9 22.2175L121.575 23.3553C121.5 23.5833 121.361 23.7059 121.221 23.6673C121.148 23.6402 121.071 23.6075 120.998 23.5803C120.925 23.5532 120.849 23.5205 120.776 23.4933C120.703 23.4662 120.631 23.4346 120.553 23.4063C120.48 23.3792 120.407 23.3521 120.335 23.3205C120.206 23.2562 120.163 23.0659 120.219 22.8333L120.541 21.7089C120.616 21.4809 120.75 21.3572 120.886 21.3947C120.959 21.4218 121.032 21.4489 121.105 21.476C121.178 21.5032 121.255 21.5314 121.328 21.5585C121.401 21.5857 121.479 21.6139 121.552 21.6411C121.626 21.6637 121.699 21.6909 121.776 21.7236ZM119.73 20.9495C119.86 21.0093 119.898 21.203 119.841 21.4355L119.525 22.5566C119.455 22.7857 119.322 22.9049 119.192 22.8642C119.119 22.8371 119.052 22.8066 118.984 22.7806C118.916 22.7546 118.844 22.723 118.775 22.697C118.707 22.671 118.635 22.6394 118.567 22.6134C118.499 22.5874 118.431 22.557 118.358 22.5299C118.239 22.4679 118.196 22.2775 118.256 22.0506L118.569 20.9384C118.64 20.7093 118.768 20.5889 118.899 20.6252C118.967 20.6512 119.035 20.6772 119.108 20.7044C119.177 20.7303 119.25 20.7575 119.318 20.7835C119.386 20.8094 119.459 20.8366 119.528 20.8626C119.59 20.8919 119.662 20.9235 119.73 20.9495ZM117.807 20.2049C117.927 20.2624 117.966 20.4517 117.905 20.6831L117.594 21.7863C117.524 22.0109 117.396 22.1313 117.276 22.0928C117.208 22.0668 117.145 22.0375 117.077 22.0115C117.013 21.9866 116.946 21.9562 116.882 21.9313C116.819 21.9065 116.751 21.876 116.688 21.8511C116.624 21.8263 116.557 21.7958 116.493 21.771C116.379 21.7101 116.344 21.5265 116.399 21.2984L116.704 20.203C116.773 19.9784 116.897 19.8569 117.018 19.8909C117.082 19.9158 117.15 19.9418 117.213 19.9666C117.277 19.9915 117.345 20.0175 117.409 20.0423C117.477 20.0683 117.541 20.0932 117.609 20.1191C117.676 20.1496 117.74 20.1745 117.807 20.2049ZM116.003 19.4843C116.113 19.5396 116.148 19.7277 116.092 19.9557L115.789 21.0466C115.72 21.2668 115.602 21.385 115.486 21.3521C115.422 21.3272 115.365 21.299 115.301 21.2742C115.237 21.2493 115.18 21.2212 115.116 21.1963C115.057 21.1726 114.995 21.1433 114.931 21.1184C114.872 21.0947 114.81 21.0654 114.751 21.0416C114.645 20.9831 114.61 20.7994 114.669 20.577L114.965 19.4983C115.033 19.2782 115.148 19.1544 115.263 19.1917C115.322 19.2155 115.385 19.2403 115.444 19.264C115.508 19.2889 115.567 19.3126 115.63 19.3375C115.694 19.3623 115.753 19.386 115.816 19.4109C115.88 19.4357 115.944 19.4606 116.003 19.4843ZM114.319 18.7977C114.421 18.8507 114.451 19.0332 114.397 19.2568L114.102 20.3309C114.035 20.5466 113.922 20.6659 113.816 20.6309C113.757 20.6071 113.699 20.579 113.64 20.5552C113.581 20.5315 113.528 20.5045 113.469 20.4807C113.41 20.457 113.357 20.43 113.298 20.4063C113.239 20.3825 113.186 20.3555 113.127 20.3318C113.032 20.2755 113 20.0974 113.053 19.8783L113.346 18.8131C113.408 18.5963 113.521 18.477 113.624 18.5064C113.683 18.5301 113.737 18.5527 113.796 18.5765C113.855 18.6002 113.909 18.6227 113.968 18.6465C114.027 18.6702 114.081 18.6928 114.14 18.7165C114.202 18.7458 114.261 18.7695 114.319 18.7977ZM112.745 18.1328C112.841 18.1846 112.867 18.366 112.814 18.5851L112.528 19.6425C112.466 19.8594 112.358 19.9753 112.257 19.9414C112.203 19.9188 112.15 19.8917 112.096 19.8692C112.041 19.8466 111.988 19.8195 111.934 19.7969C111.88 19.7744 111.827 19.7473 111.777 19.7259C111.723 19.7033 111.675 19.6774 111.621 19.6548C111.529 19.5996 111.506 19.4283 111.559 19.2092L111.843 18.1607C111.91 17.945 112.008 17.8268 112.11 17.8563C112.165 17.8789 112.214 17.9003 112.268 17.9229C112.322 17.9455 112.377 17.968 112.426 17.9895C112.48 18.0121 112.535 18.0347 112.589 18.0572C112.636 18.0876 112.69 18.1102 112.745 18.1328ZM111.286 17.5007C111.374 17.5503 111.396 17.7261 111.343 17.9452L111.061 18.9892C110.999 19.2015 110.896 19.3186 110.805 19.287C110.755 19.2655 110.707 19.2396 110.657 19.2182C110.608 19.1967 110.559 19.1708 110.51 19.1494C110.46 19.1279 110.412 19.102 110.362 19.0806C110.313 19.0591 110.264 19.0332 110.219 19.0129C110.133 18.9589 110.115 18.7887 110.167 18.5741L110.441 17.5423C110.502 17.33 110.601 17.2117 110.692 17.2434C110.742 17.2648 110.791 17.2863 110.841 17.3077C110.89 17.3292 110.94 17.3506 110.989 17.3721C111.039 17.3935 111.088 17.415 111.138 17.4364C111.188 17.4534 111.237 17.4793 111.286 17.5007ZM109.941 16.896C110.024 16.9444 110.042 17.1145 109.99 17.3292L109.717 18.3564C109.657 18.5643 109.56 18.6781 109.471 18.652C109.427 18.6317 109.378 18.6058 109.333 18.5855C109.289 18.5652 109.245 18.5404 109.195 18.519C109.151 18.4987 109.107 18.4739 109.062 18.4536C109.017 18.4333 108.973 18.4085 108.929 18.3882C108.852 18.3364 108.837 18.1719 108.888 17.9617L109.159 16.9434C109.219 16.7355 109.313 16.6161 109.395 16.6455C109.44 16.6658 109.485 16.6861 109.529 16.7065C109.574 16.7268 109.619 16.7471 109.664 16.7674C109.709 16.7877 109.754 16.808 109.803 16.8294C109.853 16.8509 109.897 16.8712 109.941 16.896ZM108.704 16.3173C108.777 16.3635 108.796 16.5336 108.74 16.7427L108.471 17.752C108.412 17.9555 108.324 18.0715 108.242 18.0421C108.202 18.0229 108.158 17.9982 108.118 17.979C108.078 17.9598 108.034 17.935 107.994 17.9159C107.954 17.8967 107.909 17.8764 107.87 17.8527C107.83 17.8336 107.791 17.8099 107.746 17.7896C107.674 17.739 107.663 17.5756 107.713 17.3699L107.98 16.3695C108.039 16.166 108.127 16.05 108.201 16.0727C108.241 16.0918 108.281 16.111 108.326 16.1313C108.366 16.1505 108.411 16.1708 108.451 16.19C108.491 16.2091 108.536 16.2294 108.576 16.2486C108.619 16.2779 108.659 16.297 108.704 16.3173ZM107.57 15.7637C107.638 15.8087 107.649 15.9721 107.599 16.1778L107.338 17.1749C107.279 17.3783 107.197 17.491 107.124 17.4639C107.083 17.4447 107.049 17.4222 107.009 17.4031C106.969 17.3839 106.934 17.3659 106.894 17.3422C106.859 17.3242 106.82 17.3005 106.785 17.2825C106.749 17.2645 106.71 17.2408 106.675 17.2228C106.611 17.1789 106.601 17.0155 106.65 16.8098L106.908 15.8261C106.967 15.6227 107.045 15.5089 107.118 15.536C107.153 15.554 107.193 15.5732 107.229 15.5912C107.264 15.6093 107.304 15.6284 107.34 15.6465C107.38 15.6657 107.415 15.6837 107.455 15.7029C107.494 15.7265 107.53 15.7445 107.57 15.7637ZM106.538 15.2396C106.597 15.2823 106.609 15.4412 106.559 15.6469L106.302 16.6261C106.249 16.8262 106.167 16.9389 106.103 16.9141C106.068 16.896 106.032 16.878 105.998 16.8555C105.962 16.8375 105.928 16.815 105.897 16.7981C105.862 16.78 105.828 16.7575 105.797 16.7406C105.762 16.7226 105.732 16.7012 105.697 16.6832C105.637 16.6404 105.635 16.4838 105.684 16.2826L105.938 15.3168C105.991 15.1167 106.068 15.0028 106.132 15.0277C106.167 15.0457 106.198 15.0626 106.233 15.0807C106.269 15.0987 106.3 15.1156 106.335 15.1336C106.37 15.1517 106.406 15.1697 106.441 15.1877C106.467 15.2035 106.503 15.2215 106.538 15.2396ZM105.604 14.7437C105.658 14.7853 105.665 14.9431 105.616 15.1444L105.369 16.1068C105.316 16.3024 105.24 16.4118 105.18 16.3926C105.172 16.3858 105.159 16.3779 105.149 16.3757C105.141 16.3689 105.128 16.361 105.119 16.3588C105.11 16.352 105.097 16.3441 105.088 16.3419C105.08 16.3351 105.066 16.3317 105.057 16.325C105.035 16.3148 105.018 16.3013 104.997 16.2867C104.974 16.2765 104.958 16.2631 104.935 16.2529C104.914 16.2383 104.896 16.2293 104.875 16.2146C104.854 16.2 104.836 16.191 104.814 16.1808C104.759 16.1392 104.757 15.9826 104.805 15.7858L105.049 14.8368C105.102 14.6412 105.178 14.5318 105.238 14.551C105.26 14.5612 105.282 14.5758 105.299 14.5848C105.322 14.595 105.338 14.6085 105.361 14.6186C105.383 14.6288 105.4 14.6423 105.422 14.6524C105.445 14.6626 105.461 14.6761 105.484 14.6862C105.492 14.693 105.506 14.6964 105.514 14.7031C105.523 14.7099 105.537 14.7133 105.545 14.72C105.553 14.7268 105.567 14.7302 105.576 14.7369C105.586 14.7347 105.596 14.737 105.604 14.7437ZM104.725 14.266C104.78 14.3076 104.787 14.461 104.74 14.6577L104.496 15.6023C104.445 15.7934 104.369 15.9028 104.31 15.8791C104.279 15.8622 104.248 15.8453 104.218 15.8284C104.187 15.8115 104.152 15.7935 104.122 15.7721C104.091 15.7552 104.056 15.7372 104.025 15.7203C103.994 15.7034 103.964 15.6865 103.928 15.6684C103.874 15.6268 103.866 15.4735 103.913 15.2812L104.154 14.3456C104.205 14.1544 104.281 14.0451 104.341 14.0643C104.372 14.0812 104.407 14.0992 104.438 14.1161C104.469 14.133 104.5 14.1499 104.535 14.168C104.566 14.1849 104.601 14.2029 104.632 14.2198C104.664 14.2322 104.694 14.2491 104.725 14.266ZM103.829 13.7983C103.883 13.8399 103.892 13.9888 103.846 14.1811L103.605 15.1122C103.554 15.3034 103.479 15.4083 103.419 15.389C103.388 15.3721 103.353 15.3541 103.322 15.3372C103.292 15.3203 103.256 15.3023 103.225 15.2854C103.195 15.2685 103.159 15.2504 103.129 15.2335C103.098 15.2166 103.062 15.1986 103.032 15.1817C102.977 15.1401 102.968 14.9912 103.015 14.799L103.253 13.8767C103.304 13.6856 103.379 13.5807 103.439 13.5999C103.47 13.6168 103.505 13.6349 103.537 13.6473C103.568 13.6642 103.603 13.6822 103.635 13.6947C103.666 13.7116 103.701 13.7296 103.733 13.742C103.767 13.7645 103.798 13.7814 103.829 13.7983ZM102.921 13.3373C102.977 13.3744 102.985 13.5233 102.939 13.7156L102.708 14.63C102.658 14.8166 102.582 14.9215 102.522 14.9023C102.492 14.8854 102.456 14.8674 102.426 14.8505C102.39 14.8324 102.36 14.8155 102.329 14.7986C102.293 14.7806 102.263 14.7637 102.232 14.7468C102.201 14.7299 102.166 14.7119 102.135 14.695C102.081 14.6534 102.071 14.509 102.116 14.3212L102.346 13.4112C102.396 13.2246 102.471 13.1197 102.531 13.1389C102.562 13.1558 102.598 13.1739 102.629 13.1863C102.66 13.2032 102.697 13.2167 102.727 13.2336C102.758 13.2505 102.795 13.2641 102.825 13.281C102.854 13.3068 102.89 13.3204 102.921 13.3373ZM101.996 12.8863C102.056 12.9245 102.065 13.0734 102.02 13.2612L101.792 14.1622C101.741 14.3489 101.672 14.4504 101.607 14.43C101.577 14.4132 101.541 14.3951 101.511 14.3782C101.48 14.3613 101.445 14.3433 101.414 14.3264C101.383 14.3095 101.348 14.2915 101.316 14.279C101.28 14.261 101.25 14.2441 101.218 14.2317C101.158 14.1934 101.149 14.0445 101.193 13.8612L101.419 12.9692C101.468 12.787 101.543 12.6821 101.604 12.6968C101.64 12.7149 101.671 12.7273 101.707 12.7453C101.738 12.7622 101.774 12.7758 101.805 12.7927C101.84 12.8107 101.872 12.8232 101.903 12.8401C101.929 12.8558 101.965 12.8694 101.996 12.8863ZM101.059 12.4419C101.12 12.4802 101.129 12.6246 101.085 12.8079L100.86 13.6955C100.811 13.8777 100.737 13.9781 100.677 13.9589C100.642 13.9408 100.611 13.9239 100.575 13.9104C100.539 13.8923 100.507 13.8799 100.472 13.8619C100.437 13.8438 100.405 13.8314 100.369 13.8134C100.334 13.7953 100.302 13.7829 100.267 13.7649C100.206 13.7266 100.197 13.5822 100.241 13.3989L100.464 12.5203C100.513 12.3381 100.588 12.2332 100.652 12.2535C100.688 12.2716 100.72 12.284 100.755 12.302C100.79 12.3201 100.822 12.3325 100.858 12.3505C100.894 12.3641 100.925 12.381 100.96 12.399C100.992 12.4115 101.027 12.4295 101.059 12.4419ZM100.11 12.0087C100.17 12.047 100.181 12.1869 100.137 12.3702L99.919 13.25C99.871 13.4277 99.797 13.5281 99.737 13.5089C99.7016 13.4909 99.6698 13.4784 99.6344 13.4604C99.599 13.4424 99.5672 13.4299 99.5318 13.4119C99.4964 13.3939 99.4646 13.3814 99.4292 13.3634C99.3937 13.3454 99.3619 13.333 99.3265 13.3149C99.2662 13.2766 99.2553 13.1367 99.2985 12.9579L99.5142 12.087C99.5622 11.9093 99.6326 11.8033 99.6973 11.8237C99.7338 11.8372 99.7645 11.8541 99.801 11.8677C99.8375 11.8813 99.8682 11.8982 99.9047 11.9117C99.9412 11.9253 99.9719 11.9422 100.008 11.9557C100.043 11.9782 100.079 11.9918 100.11 12.0087ZM99.1491 11.5822C99.2105 11.616 99.2203 11.7603 99.1817 11.9403L98.9672 12.8067C98.9192 12.9844 98.8452 13.0849 98.7805 13.0645C98.7451 13.0464 98.7133 13.034 98.6779 13.016C98.6425 12.9979 98.6107 12.9855 98.5752 12.9675C98.5398 12.9494 98.508 12.937 98.4726 12.919C98.4372 12.9009 98.4054 12.8885 98.37 12.8705C98.3096 12.8322 98.2929 12.6956 98.3362 12.5168L98.5486 11.6594C98.5966 11.4816 98.6706 11.3812 98.7353 11.4016C98.7707 11.4196 98.8025 11.4321 98.839 11.4456C98.8755 11.4592 98.9109 11.4772 98.9427 11.4896C98.9792 11.5032 99.0099 11.5201 99.0464 11.5337C99.0819 11.5517 99.1184 11.5653 99.1491 11.5822ZM98.1777 11.1578C98.2392 11.1916 98.2558 11.3282 98.2115 11.5115L97.9991 12.3689C97.9522 12.5422 97.8782 12.6426 97.8135 12.6222C97.7781 12.6042 97.7463 12.5918 97.7098 12.5782C97.6744 12.5602 97.6379 12.5466 97.6061 12.5342C97.5706 12.5162 97.5342 12.5026 97.5023 12.4902C97.4669 12.4721 97.4304 12.4586 97.3986 12.4461C97.3383 12.4079 97.3216 12.2713 97.3638 12.0969L97.5741 11.2484C97.6209 11.0752 97.695 10.9748 97.7607 10.9907C97.7972 11.0042 97.8326 11.0223 97.8644 11.0347C97.9009 11.0483 97.9364 11.0663 97.9681 11.0787C98.0046 11.0923 98.0354 11.1092 98.0719 11.1227C98.1094 11.1318 98.1459 11.1454 98.1777 11.1578ZM97.1984 10.7458C97.2599 10.7795 97.2766 10.9161 97.2333 11.095L97.0241 11.939C96.9772 12.1122 96.9043 12.2082 96.8385 12.1923C96.802 12.1787 96.7666 12.1607 96.7301 12.1471C96.6936 12.1336 96.6582 12.1155 96.6264 12.1031C96.591 12.0851 96.5545 12.0715 96.5227 12.0591C96.4862 12.0455 96.4508 12.0275 96.4143 12.0139C96.3529 11.9801 96.3362 11.8435 96.3737 11.668L96.5818 10.8285C96.6286 10.6552 96.7016 10.5593 96.7673 10.5752C96.8038 10.5887 96.8393 10.6068 96.8711 10.6192C96.9076 10.6328 96.943 10.6508 96.9795 10.6644C97.016 10.6779 97.0514 10.696 97.0879 10.7095C97.1255 10.7186 97.1619 10.7322 97.1984 10.7458ZM96.2029 10.3392C96.2643 10.373 96.281 10.5096 96.2435 10.6851L96.0412 11.5213C95.9954 11.6901 95.9214 11.7905 95.8567 11.7701C95.8202 11.7566 95.7848 11.7385 95.7483 11.725C95.7118 11.7114 95.6764 11.6934 95.6399 11.6798C95.6034 11.6663 95.568 11.6482 95.5315 11.6347C95.495 11.6211 95.4596 11.6031 95.4231 11.5895C95.3616 11.5557 95.345 11.4191 95.3814 11.2481L95.5826 10.4163C95.6284 10.2476 95.7024 10.1471 95.7682 10.163C95.8047 10.1766 95.8412 10.1902 95.8766 10.2082C95.9131 10.2218 95.9485 10.2398 95.985 10.2534C96.0215 10.2669 96.058 10.2805 96.0934 10.2985C96.1299 10.3121 96.1664 10.3257 96.2029 10.3392ZM95.2005 9.94049C95.2619 9.97429 95.2797 10.1064 95.2422 10.2819L95.0421 11.1092C94.9962 11.278 94.928 11.3751 94.8575 11.358C94.821 11.3444 94.7856 11.3264 94.7491 11.3128C94.7126 11.2993 94.6772 11.2812 94.6407 11.2677C94.6042 11.2541 94.5688 11.2361 94.5323 11.2225C94.4958 11.209 94.4604 11.1909 94.4239 11.1774C94.3578 11.1424 94.3447 11.0115 94.3811 10.8404L94.5802 10.0176C94.626 9.84884 94.6989 9.75288 94.7647 9.76879C94.8012 9.78235 94.8377 9.79592 94.8742 9.80948C94.9107 9.82305 94.9472 9.83661 94.9826 9.85464C95.0191 9.86821 95.0556 9.88177 95.0921 9.89533C95.1275 9.91337 95.164 9.92693 95.2005 9.94049ZM94.1829 9.54283C94.2491 9.57777 94.2668 9.70987 94.2257 9.87979L94.0277 10.6981C93.983 10.8624 93.9101 10.9584 93.8443 10.9425C93.8078 10.9289 93.7713 10.9153 93.7359 10.8973C93.6994 10.8837 93.6629 10.8702 93.6275 10.8521C93.591 10.8386 93.5545 10.825 93.5191 10.807C93.4826 10.7934 93.4461 10.7798 93.4107 10.7618C93.3445 10.7269 93.3268 10.5948 93.3668 10.4293L93.5637 9.61549C93.6084 9.45117 93.6824 9.35075 93.7482 9.36666C93.7847 9.38022 93.8212 9.39379 93.8577 9.40735C93.8942 9.42091 93.9307 9.43448 93.9672 9.44804C94.0037 9.4616 94.0402 9.47516 94.0767 9.48873C94.1099 9.51571 94.1464 9.52927 94.1829 9.54283ZM93.1574 9.15745C93.2235 9.19238 93.2424 9.32001 93.206 9.49107L93.0101 10.3004C92.9654 10.4647 92.8972 10.5618 92.8267 10.5448C92.7902 10.5312 92.7537 10.5177 92.7183 10.4996C92.6818 10.4861 92.6453 10.4725 92.6088 10.4589C92.5723 10.4454 92.5358 10.4318 92.4993 10.4182C92.4628 10.4047 92.4263 10.3911 92.3909 10.3731C92.3248 10.3382 92.306 10.2105 92.3413 10.0439L92.5313 9.23791C92.5714 9.07246 92.6443 8.9765 92.7148 8.99355C92.7512 9.00711 92.7877 9.02068 92.8242 9.03424C92.8607 9.04781 92.8972 9.06137 92.9337 9.07493C92.9702 9.08849 93.0067 9.10206 93.0432 9.11562C93.0844 9.13032 93.1209 9.14388 93.1574 9.15745ZM92.0766 8.75395C92.1568 8.7923 92.184 8.92667 92.1487 9.09326L91.9597 9.89482C91.915 10.0591 91.8337 10.1483 91.7549 10.1245C91.7091 10.1087 91.6642 10.0884 91.623 10.0737C91.5772 10.0579 91.5323 10.0376 91.4912 10.0229C91.4453 10.007 91.4005 9.98672 91.3593 9.97202C91.3134 9.95618 91.2686 9.93587 91.2274 9.92117C91.1471 9.88283 91.1189 9.75293 91.1542 9.58634L91.3421 8.78925C91.3868 8.62494 91.4681 8.53573 91.5479 8.55505C91.5938 8.57089 91.6397 8.58672 91.6809 8.60142C91.7268 8.61726 91.7727 8.63309 91.8139 8.64779C91.8598 8.66363 91.9057 8.67947 91.9458 8.69864C91.9895 8.72342 92.0354 8.73925 92.0766 8.75395ZM90.8278 8.30508C90.908 8.34342 90.9362 8.47332 90.9009 8.63991L90.7141 9.43252C90.6705 9.59236 90.5892 9.68157 90.5094 9.66225C90.4635 9.64642 90.4176 9.63058 90.3775 9.61141C90.3316 9.59557 90.2857 9.57974 90.2456 9.56057C90.1997 9.54473 90.1585 9.53003 90.1126 9.51419C90.0667 9.49836 90.0208 9.48252 89.9796 9.46782C89.8994 9.42948 89.8712 9.29958 89.9054 9.13746L90.0911 8.34932C90.1348 8.18947 90.2171 8.09579 90.297 8.11511C90.3428 8.13095 90.3887 8.14678 90.4299 8.16148C90.4758 8.17732 90.5217 8.19316 90.5629 8.20786C90.6088 8.22369 90.65 8.2384 90.6959 8.25423C90.736 8.2734 90.7819 8.28924 90.8278 8.30508ZM89.5757 7.86961C89.6559 7.90795 89.6853 8.03338 89.6499 8.19997L89.4642 8.98812C89.4206 9.14796 89.3393 9.23717 89.2595 9.21785C89.2136 9.20201 89.1724 9.18731 89.1265 9.17147C89.0806 9.15564 89.0394 9.14094 88.9935 9.1251C88.9476 9.10926 88.9017 9.09343 88.8605 9.07873C88.8146 9.06289 88.7734 9.04819 88.7275 9.03235C88.6473 8.99401 88.618 8.86858 88.6523 8.70647L88.8322 7.92166C88.8758 7.76182 88.9524 7.67147 89.038 7.68745C89.0839 7.70329 89.1298 7.71913 89.171 7.73383C89.2169 7.74967 89.2628 7.7655 89.304 7.7802C89.3499 7.79604 89.3911 7.81074 89.437 7.82657C89.4839 7.83794 89.5298 7.85377 89.5757 7.86961ZM88.3226 7.43862C88.4028 7.47696 88.4321 7.60239 88.3978 7.76451L88.219 8.54484C88.18 8.70582 88.0988 8.79503 88.0142 8.77457C87.9684 8.75874 87.9225 8.7429 87.8813 8.7282C87.8354 8.71236 87.7942 8.69767 87.7483 8.68183C87.7024 8.66599 87.6612 8.65129 87.6153 8.63546C87.5694 8.61962 87.5235 8.60378 87.4823 8.58908C87.4021 8.55074 87.3717 8.42979 87.406 8.26767L87.5837 7.4918C87.6274 7.33196 87.7039 7.24162 87.7885 7.26207C87.8344 7.27791 87.8756 7.29261 87.9215 7.30844C87.9674 7.32428 88.0132 7.34012 88.0544 7.35482C88.1003 7.37065 88.1415 7.38535 88.1874 7.40119C88.2297 7.41142 88.2756 7.42726 88.3226 7.43862ZM87.0651 7.02551C87.1464 7.05938 87.1746 7.18928 87.1415 7.34693L86.9637 8.12279C86.9258 8.2793 86.8446 8.36851 86.7589 8.35252C86.713 8.33669 86.6671 8.32085 86.626 8.30615C86.5801 8.29032 86.5342 8.27448 86.493 8.25978C86.4471 8.24394 86.4012 8.22811 86.36 8.21341C86.3141 8.19757 86.2729 8.18287 86.227 8.16704C86.1457 8.13316 86.1164 8.00774 86.146 7.84448L86.3226 7.07309C86.3663 6.91325 86.4428 6.8229 86.5274 6.84336C86.5733 6.85919 86.6192 6.87503 86.6614 6.88526C86.7073 6.9011 86.7532 6.91693 86.7955 6.92716C86.8414 6.943 86.8873 6.95883 86.9296 6.96906C86.9733 6.99384 87.0192 7.00968 87.0651 7.02551ZM85.8065 6.61688C85.8878 6.65075 85.9171 6.77618 85.8876 6.93943L85.7109 7.71082C85.673 7.86733 85.5918 7.95654 85.5072 7.93608C85.4519 7.91798 85.4014 7.901 85.3461 7.88289C85.2908 7.86478 85.2402 7.84781 85.1849 7.8297C85.1296 7.81159 85.079 7.79462 85.0237 7.77651C84.9685 7.7584 84.9179 7.74143 84.8626 7.72332C84.7672 7.68604 84.7238 7.5572 84.7522 7.39842L84.9279 6.6315C84.9657 6.47499 85.0611 6.38919 85.1597 6.41306C85.215 6.43116 85.2656 6.44814 85.3219 6.46178C85.3772 6.47989 85.4278 6.49686 85.4831 6.51497C85.5384 6.53308 85.589 6.55005 85.6443 6.56816C85.6949 6.58513 85.7465 6.59764 85.8065 6.61688ZM84.2943 6.14688C84.3897 6.18416 84.4331 6.31299 84.4046 6.47177L84.2348 7.23536C84.1922 7.39073 84.1016 7.47767 84.003 7.4538C83.9477 7.43569 83.8971 7.41872 83.8407 7.40508C83.7854 7.38697 83.7301 7.36886 83.6785 7.35636C83.6232 7.33825 83.5726 7.32128 83.5162 7.30764C83.4609 7.28953 83.4104 7.27256 83.354 7.25892C83.2586 7.22164 83.2152 7.0928 83.2436 6.93402L83.4135 6.17044C83.4513 6.01393 83.5467 5.92813 83.6453 5.952C83.7006 5.97011 83.757 5.98374 83.8076 6.00071C83.8629 6.01882 83.9192 6.03246 83.9698 6.04944C84.0251 6.06755 84.0804 6.08565 84.1321 6.09815C84.1837 6.11066 84.239 6.12877 84.2943 6.14688ZM82.7705 5.68354C82.8659 5.72082 82.914 5.8508 82.8809 6.00844L82.711 6.77203C82.6732 6.92853 82.5789 7.00986 82.4792 6.99047C82.4239 6.97236 82.3675 6.95872 82.3169 6.94175C82.2617 6.92364 82.2053 6.91 82.1547 6.89303C82.0994 6.87492 82.043 6.86128 81.9925 6.84431C81.9372 6.8262 81.8855 6.8137 81.8302 6.79559C81.7348 6.75831 81.6903 6.63394 81.7188 6.47516L81.8875 5.71605C81.9254 5.55954 82.016 5.4726 82.1194 5.49761C82.1747 5.51572 82.231 5.52935 82.2816 5.54632C82.3369 5.56443 82.3933 5.57807 82.4439 5.59505C82.4992 5.61316 82.5508 5.62565 82.6061 5.64376C82.6636 5.65293 82.7188 5.67104 82.7705 5.68354ZM81.2424 5.2381C81.3425 5.27651 81.387 5.40088 81.3538 5.55852L81.1851 6.31764C81.1472 6.47414 81.053 6.55547 80.9532 6.53608C80.898 6.51797 80.8416 6.50433 80.791 6.48736C80.7357 6.46925 80.6793 6.45561 80.6288 6.43864C80.5724 6.425 80.5171 6.40689 80.4665 6.38992C80.4101 6.37628 80.3549 6.35817 80.3043 6.3412C80.2042 6.30278 80.1597 6.17841 80.1871 6.02411L80.35 5.26833C80.3879 5.11182 80.4785 5.02488 80.583 5.04541C80.6393 5.05905 80.6946 5.07716 80.751 5.0908C80.8074 5.10443 80.8626 5.12254 80.9143 5.13505C80.9696 5.15316 81.026 5.1668 81.0766 5.18377C81.1308 5.20635 81.1871 5.21999 81.2424 5.2381ZM79.7017 4.80379C79.8018 4.84221 79.8463 4.96657 79.8189 5.12088L79.6559 5.87666C79.6191 6.0287 79.5285 6.11563 79.4241 6.0951C79.3688 6.07699 79.3124 6.06336 79.256 6.04972C79.1997 6.03608 79.1444 6.01797 79.088 6.00434C79.0316 5.9907 78.9764 5.97259 78.92 5.95895C78.8636 5.94531 78.8083 5.9272 78.752 5.91356C78.6519 5.87515 78.6063 5.75525 78.6348 5.59647L78.7977 4.84069C78.8356 4.68418 78.9262 4.59725 79.0307 4.61778C79.087 4.63142 79.1423 4.64953 79.1987 4.66317C79.2551 4.6768 79.3103 4.69491 79.3667 4.70855C79.4231 4.72219 79.4784 4.7403 79.5347 4.75393C79.59 4.77204 79.6464 4.78568 79.7017 4.80379ZM78.1212 4.36933C78.2354 4.41116 78.2903 4.53333 78.2619 4.69211L78.0989 5.44789C78.0574 5.59879 77.9621 5.68459 77.8436 5.66065C77.7825 5.64587 77.7178 5.62549 77.6568 5.61072C77.5957 5.59594 77.531 5.57556 77.4699 5.56079C77.4089 5.54601 77.3442 5.52563 77.2831 5.51086C77.2221 5.49608 77.1574 5.4757 77.0963 5.46093C76.9858 5.42471 76.9319 5.29807 76.9546 5.14262L77.1175 4.38684C77.1554 4.23034 77.2554 4.14567 77.3739 4.16961C77.435 4.18439 77.5008 4.2003 77.5608 4.21954C77.6218 4.23432 77.6865 4.2547 77.7476 4.26947C77.8086 4.28425 77.8733 4.30463 77.9344 4.31941C77.9944 4.33865 78.0554 4.35342 78.1212 4.36933ZM76.3684 3.90738C76.4836 3.94474 76.5375 4.07138 76.509 4.23016L76.3508 4.98708C76.314 5.13911 76.2139 5.22377 76.0944 5.20431C76.0333 5.18953 75.9675 5.17362 75.9075 5.15437C75.8465 5.1396 75.7807 5.12369 75.7207 5.10444C75.6597 5.08967 75.5939 5.07376 75.5328 5.05899C75.4718 5.04421 75.406 5.0283 75.3449 5.01353C75.2344 4.97731 75.1794 4.85514 75.2032 4.69522L75.3614 3.9383C75.3993 3.7818 75.4994 3.69714 75.6132 3.71994C75.6742 3.73471 75.74 3.75062 75.8011 3.7654C75.8621 3.78017 75.9279 3.79608 75.989 3.81086C76.05 3.82563 76.1158 3.84154 76.1758 3.86079C76.2462 3.87784 76.3073 3.89261 76.3684 3.90738ZM74.6195 3.47006C74.7301 3.50628 74.7897 3.62959 74.7613 3.78837L74.603 4.54528C74.5662 4.69732 74.4651 4.78645 74.3513 4.76365C74.2902 4.74887 74.2245 4.73296 74.1634 4.71819C74.1023 4.70342 74.0366 4.6875 73.9755 4.67273C73.9144 4.65796 73.8487 4.64205 73.7876 4.62727C73.7265 4.6125 73.6608 4.59659 73.5997 4.58181C73.4891 4.54559 73.4342 4.42343 73.4579 4.26351L73.6162 3.50659C73.6541 3.35009 73.7541 3.26542 73.869 3.28376C73.9301 3.29853 73.9958 3.31444 74.0569 3.32921C74.118 3.34399 74.1837 3.3599 74.2448 3.37467C74.3059 3.38945 74.3716 3.40536 74.4327 3.42013C74.4938 3.43491 74.5595 3.45082 74.6195 3.47006ZM72.8674 3.04616C72.978 3.08238 73.0376 3.20568 73.0092 3.36446L72.8509 4.12138C72.813 4.27788 72.713 4.36255 72.5981 4.34422C72.537 4.32944 72.4713 4.31353 72.4102 4.29876C72.3491 4.28398 72.2834 4.26807 72.2223 4.2533C72.1613 4.23852 72.0955 4.22261 72.0344 4.20784C71.9734 4.19306 71.9076 4.17715 71.8465 4.16238C71.7349 4.13063 71.6763 4.00285 71.7037 3.84855L71.8583 3.08602C71.8962 2.92952 71.9973 2.84038 72.1122 2.85871C72.1733 2.87349 72.2391 2.8894 72.3001 2.90417C72.3612 2.91895 72.4269 2.93486 72.488 2.94963C72.5491 2.9644 72.6148 2.98032 72.6759 2.99509C72.7453 3.01661 72.8063 3.03138 72.8674 3.04616ZM71.111 2.64014C71.2226 2.67188 71.2812 2.79966 71.2528 2.95844L71.0981 3.72096C71.0602 3.87747 70.9602 3.96213 70.8442 3.94827C70.7832 3.9335 70.7174 3.91759 70.6552 3.90729C70.5942 3.89251 70.5273 3.88108 70.4663 3.8663C70.4052 3.85153 70.3384 3.84009 70.2773 3.82531C70.2162 3.81054 70.1494 3.7991 70.0883 3.78432C69.9767 3.75258 69.917 3.62928 69.9455 3.47049L70.1001 2.70797C70.138 2.55146 70.2391 2.46233 70.3551 2.47619C70.4162 2.49096 70.4819 2.50687 70.5441 2.51718C70.6051 2.53195 70.6709 2.54786 70.733 2.55816C70.7941 2.57294 70.8599 2.58885 70.922 2.59915C70.9842 2.60945 71.0499 2.62536 71.111 2.64014ZM69.3455 2.25087C69.4619 2.28375 69.5158 2.41039 69.4873 2.56917L69.3316 3.33617C69.2937 3.49267 69.1926 3.58181 69.0766 3.56795C69.0155 3.55317 68.9487 3.54174 68.8876 3.52696C68.8266 3.51219 68.7597 3.50075 68.6987 3.48597C68.6376 3.4712 68.5707 3.45976 68.5097 3.44499C68.4486 3.43021 68.3818 3.41877 68.3207 3.404C68.2044 3.37111 68.1494 3.24895 68.1779 3.09017L68.33 2.31756C68.3678 2.16106 68.47 2.06745 68.5849 2.08578C68.646 2.10055 68.7129 2.11199 68.7786 2.1279C68.8397 2.14268 68.9065 2.15412 68.9676 2.16889C69.0287 2.18367 69.0955 2.19511 69.1566 2.20988C69.2187 2.22018 69.2845 2.23609 69.3455 2.25087ZM67.5664 1.87721C67.6827 1.9101 67.7377 2.03226 67.7139 2.19218L67.5618 2.96478C67.5239 3.12129 67.4217 3.2149 67.3058 3.20104C67.2389 3.1896 67.1778 3.17482 67.1157 3.16452C67.0535 3.15422 66.9878 3.13831 66.9209 3.12687C66.8588 3.11657 66.793 3.10066 66.7262 3.08922C66.664 3.07891 66.5983 3.06301 66.5314 3.05157C66.414 3.02315 66.3601 2.89651 66.3839 2.7366L66.5371 1.95952C66.576 1.79854 66.6782 1.70494 66.7931 1.72327C66.86 1.73471 66.921 1.74948 66.9879 1.76092C67.0547 1.77236 67.1158 1.78713 67.1826 1.79857C67.2495 1.81001 67.3106 1.82479 67.3774 1.83623C67.4385 1.851 67.5006 1.8613 67.5664 1.87721ZM65.7688 1.51803C65.8851 1.55092 65.9448 1.67422 65.9153 1.83747L65.762 2.61455C65.7231 2.77553 65.6209 2.86913 65.5049 2.85527C65.4381 2.84383 65.3759 2.83353 65.3102 2.81762C65.2433 2.80618 65.1812 2.79588 65.1154 2.77997C65.0486 2.76853 64.9864 2.75823 64.9207 2.74232C64.8538 2.73088 64.7917 2.72058 64.7248 2.70914C64.6074 2.68072 64.5477 2.55742 64.5726 2.39303L64.7232 1.60588C64.7622 1.4449 64.8644 1.35129 64.9804 1.36515C65.0472 1.37659 65.1083 1.39136 65.1751 1.4028C65.242 1.41424 65.303 1.42902 65.3699 1.44045C65.4367 1.45189 65.4978 1.46667 65.5646 1.47811C65.6362 1.49068 65.703 1.50212 65.7688 1.51803ZM154.517 37.1002C154.844 36.3652 155.324 36.0649 155.983 36.177C157.44 36.6098 158.838 37.019 160.161 37.4055C161.491 37.7887 162.746 38.1492 163.914 38.4791C165.087 38.8103 166.177 39.112 167.17 39.3853C168.163 39.6587 169.064 39.9004 169.863 40.1126L163.629 56.8988C162.855 56.6878 161.983 56.4485 161.016 56.1718C160.053 55.8963 158.999 55.5892 157.863 55.2481C156.732 54.9082 155.514 54.5378 154.234 54.1336C152.955 53.7293 151.607 53.2991 150.203 52.8362C149.613 52.561 149.419 52.0691 149.603 51.3279L154.517 37.1002ZM152.711 35.1913C153.332 35.4219 153.581 36.0169 153.364 36.7501L148.487 50.9444C148.333 51.3377 147.943 51.9628 147.046 51.7648C145.779 51.3304 144.476 50.878 143.148 50.4053C141.83 49.9349 140.482 49.4431 139.122 48.939C137.772 48.4371 136.401 47.9162 135.026 47.3751C133.663 46.8419 132.289 46.2963 130.918 45.7328C130.724 45.6527 130.525 45.5714 130.33 45.4912C130.136 45.411 129.942 45.3309 129.752 45.2518C129.557 45.1717 129.368 45.0926 129.173 45.0124C128.984 44.9334 128.789 44.8532 128.601 44.7697C128.596 44.7686 128.591 44.7675 128.591 44.7675C128.586 44.7663 128.582 44.7652 128.582 44.7652C128.577 44.7641 128.572 44.7629 128.572 44.7629C128.568 44.7618 128.563 44.7606 128.563 44.7606C127.928 44.3846 128.002 43.6877 128.105 43.3055L132.243 29.8178C132.471 29.163 132.95 28.8056 133.439 28.9428C133.444 28.9439 133.449 28.9451 133.453 28.9462C133.458 28.9474 133.463 28.9485 133.463 28.9485C133.467 28.9496 133.472 28.9508 133.472 28.9508C133.477 28.9519 133.481 28.953 133.481 28.953C133.679 29.0198 133.88 29.0922 134.083 29.16C134.285 29.2279 134.482 29.2992 134.684 29.3671C134.886 29.4349 135.088 29.5073 135.29 29.5752C135.492 29.6431 135.698 29.7166 135.901 29.7845C137.334 30.2732 138.764 30.7519 140.187 31.2238C141.623 31.6991 143.047 32.1621 144.459 32.6171C145.88 33.0745 147.279 33.5172 148.652 33.9442C150.046 34.3712 151.397 34.788 152.711 35.1913ZM130.893 28.0382C131.538 28.374 131.459 29.0932 131.352 29.4933L127.245 42.9319C127.116 43.3029 126.803 43.8947 126.128 43.7076C125.017 43.2212 123.935 42.7416 122.883 42.2599C121.839 41.7849 120.831 41.309 119.85 40.8398C118.884 40.3741 117.941 39.9141 117.038 39.4542C116.143 39.001 115.277 38.5547 114.441 38.1062C113.996 37.7667 114.078 37.1191 114.169 36.7625L117.703 24.2315C117.815 23.8705 118.083 23.2774 118.608 23.3901C119.49 23.7504 120.402 24.1129 121.346 24.4835C122.3 24.8563 123.292 25.2382 124.308 25.6213C125.337 26.0123 126.4 26.4068 127.492 26.8081C128.592 27.2116 129.731 27.6243 130.893 28.0382ZM116.793 22.6482C117.245 22.9375 117.155 23.5973 117.066 23.9684L113.561 36.4402C113.453 36.7833 113.2 37.3374 112.727 37.1756C111.95 36.7464 111.208 36.3207 110.494 35.9018C109.789 35.4851 109.113 35.0753 108.469 34.6734C107.83 34.2727 107.224 33.88 106.643 33.4884C106.074 33.1047 105.529 32.7267 105.013 32.3511C104.745 32.0636 104.839 31.471 104.918 31.1445L107.946 19.7171C108.188 18.8811 108.484 18.9102 108.581 18.9195C109.135 19.2002 109.718 19.4832 110.323 19.7764C110.943 20.073 111.59 20.3764 112.267 20.6821C112.957 20.9958 113.67 21.3151 114.417 21.6379C115.187 21.9709 115.977 22.3039 116.793 22.6482ZM107.463 18.3413C107.734 18.5773 107.635 19.1733 107.554 19.5087L104.545 30.8746C104.392 31.4055 104.201 31.6386 103.97 31.5684C103.748 31.3964 103.531 31.2255 103.318 31.0557C103.11 30.8871 102.907 30.7197 102.709 30.5533C102.515 30.3881 102.321 30.2229 102.141 30.0656C101.956 29.9027 101.78 29.7465 101.61 29.5869C101.428 29.4151 101.24 29.2465 101.052 29.078C100.864 28.9094 100.675 28.7454 100.486 28.5813C100.297 28.4172 100.102 28.2565 99.9072 28.0958C99.7124 27.935 99.5165 27.7788 99.3206 27.6225C99.2653 27.5429 99.1005 27.2994 99.2754 26.556L101.903 16.2293C102.039 15.7274 102.209 15.4796 102.41 15.4904C102.626 15.6042 102.832 15.7203 103.042 15.8374C103.252 15.9546 103.463 16.0717 103.668 16.1877C103.879 16.3049 104.083 16.4254 104.288 16.5459C104.492 16.6664 104.697 16.7869 104.897 16.9062C105.084 17.0177 105.279 17.1359 105.475 17.2496C105.676 17.3645 105.88 17.485 106.095 17.6033C106.309 17.7261 106.529 17.8455 106.758 17.9672C106.987 18.0889 107.226 18.2129 107.463 18.3413ZM101.539 15.0195C101.761 15.215 101.671 15.7517 101.602 16.0569L98.9916 26.3312C98.8279 26.9258 98.6365 27.0594 98.51 26.9862C98.128 26.6949 97.7355 26.4059 97.3361 26.1247C96.9415 25.8446 96.541 25.5679 96.1348 25.2944C95.7322 25.0266 95.3238 24.7622 94.905 24.4999C94.4955 24.2399 94.0745 23.9866 93.6535 23.7332C93.4261 23.522 93.4938 23.0367 93.554 22.7672L95.8809 13.2528C95.9526 12.9767 96.1168 12.5241 96.39 12.5666C96.8355 12.7596 97.2742 12.9604 97.7093 13.1556C98.148 13.3564 98.582 13.5561 99.0091 13.7635C99.4421 13.9677 99.8692 14.1752 100.286 14.3848C100.708 14.5912 101.129 14.8065 101.539 15.0195ZM95.4352 12.1557C95.6759 12.3323 95.6061 12.8266 95.5437 13.105L93.2302 22.5848C93.1617 22.8474 93.0019 23.2821 92.7421 23.205C92.4667 23.0485 92.1913 22.8919 91.9149 22.7398C91.6384 22.5878 91.3572 22.4345 91.075 22.2858C90.7928 22.137 90.5105 21.9883 90.2272 21.844C89.9439 21.6997 89.6559 21.5543 89.3679 21.4089C89.1767 21.3153 88.9808 21.2206 88.7897 21.127C88.5985 21.0334 88.4016 20.9431 88.2104 20.8496C88.0182 20.7604 87.8223 20.6657 87.63 20.5766C87.4378 20.4875 87.2409 20.3973 87.0475 20.3126C86.7537 20.109 86.795 19.6504 86.8462 19.3977L88.9305 10.4541C89.0448 10.0227 89.2702 9.76951 89.4956 9.82407C89.6969 9.89643 89.8982 9.96879 90.0984 10.0456C90.2997 10.118 90.4998 10.1948 90.7011 10.2672C90.9013 10.344 91.1026 10.4164 91.3028 10.4932C91.503 10.5701 91.7031 10.6469 91.9033 10.7237C92.2036 10.839 92.5028 10.9587 92.7984 11.0728C93.0929 11.1914 93.3921 11.3111 93.6819 11.4286C93.9764 11.5472 94.2699 11.6702 94.5597 11.7877C94.8578 11.9119 95.1465 12.0338 95.4352 12.1557ZM88.3068 9.39443C88.6165 9.5735 88.5694 10.0354 88.516 10.2971L86.443 19.2149C86.3319 19.633 86.1156 19.8694 85.8944 19.797C85.6599 19.6976 85.4254 19.5983 85.1908 19.4989C84.9563 19.3996 84.7207 19.3047 84.4862 19.2054C84.2506 19.1105 84.015 19.0156 83.7794 18.9208C83.5438 18.8259 83.3071 18.7355 83.0704 18.6451C82.6935 18.4971 82.3145 18.3581 81.9354 18.219C81.5563 18.08 81.1773 17.9409 80.7961 17.8108C80.4159 17.6763 80.0347 17.5462 79.6477 17.4194C79.2665 17.2893 78.8784 17.167 78.4961 17.0414C78.1232 16.8565 78.1392 16.4202 78.1882 16.1764L80.0721 7.56778C80.1796 7.14412 80.431 6.90673 80.7103 6.96484C81.1052 7.07932 81.4991 7.19828 81.8893 7.31163C82.2832 7.43059 82.6724 7.54841 83.0604 7.67071C83.4485 7.793 83.8424 7.91196 84.2294 8.03873C84.6175 8.16102 85.0045 8.28778 85.3915 8.41455C85.6361 8.49267 85.8796 8.57526 86.1232 8.65785C86.3667 8.74044 86.6103 8.82304 86.8491 8.90449C87.0927 8.98708 87.3362 9.06967 87.574 9.1556C87.8208 9.22478 88.0633 9.31184 88.3068 9.39443ZM79.2328 6.53636C79.6183 6.71012 79.599 7.15985 79.5525 7.41367L77.6802 16.0156C77.6171 16.256 77.4576 16.6481 77.0532 16.5929C76.9557 16.5646 76.8581 16.5362 76.7559 16.5067C76.6583 16.4784 76.5607 16.4501 76.4585 16.4206C76.3609 16.3923 76.2634 16.3639 76.1611 16.3344C76.0635 16.3061 75.966 16.2778 75.8637 16.2483C75.1985 16.0589 74.5358 15.8797 73.8757 15.7105C73.2108 15.5402 72.5485 15.3799 71.8804 15.223C71.2112 15.0706 70.5456 14.9238 69.8779 14.7859C69.2055 14.6468 68.5356 14.5179 67.8588 14.3968C67.5488 14.3218 67.3893 13.9944 67.4618 13.5718L69.2163 4.86082C69.3201 4.43155 69.5946 4.18081 69.9158 4.23013C70.5966 4.37589 71.2762 4.52613 71.9548 4.68084C72.6334 4.83555 73.3062 4.9936 73.9815 5.16172C74.6579 5.32537 75.3285 5.49236 76.0017 5.66943C76.676 5.84202 77.348 6.02356 78.0248 6.20624C78.1271 6.23571 78.2257 6.25958 78.328 6.28906C78.4255 6.31739 78.5289 6.34239 78.6311 6.37187C78.7334 6.40134 78.832 6.42521 78.9343 6.45468C79.0329 6.47855 79.1352 6.50802 79.2328 6.53636ZM161.721 57.4075C161.848 57.4572 161.878 57.6442 161.791 57.8979L161.347 59.0968C161.248 59.3426 161.105 59.4831 160.966 59.459C160.892 59.4364 160.822 59.4193 160.748 59.3967C160.674 59.374 160.598 59.3558 160.524 59.3332C160.45 59.3105 160.37 59.2912 160.296 59.2686C160.222 59.2459 160.142 59.2266 160.064 59.2028C159.927 59.1508 159.89 58.9526 159.974 58.7079L160.413 57.5123C160.512 57.2665 160.671 57.125 160.817 57.1557C160.896 57.1795 160.976 57.1989 161.05 57.2215C161.129 57.2453 161.204 57.2635 161.278 57.2861C161.352 57.3088 161.427 57.327 161.501 57.3496C161.578 57.3634 161.652 57.386 161.721 57.4075ZM159.527 56.7772C159.673 56.8315 159.714 57.0308 159.634 57.2811L159.195 58.4767C159.097 58.718 158.934 58.8584 158.778 58.8254C158.694 58.8005 158.611 58.7755 158.522 58.7495C158.439 58.7245 158.351 58.6985 158.267 58.6735C158.179 58.6475 158.096 58.6226 158.008 58.5965C157.919 58.5704 157.831 58.5444 157.743 58.5183C157.589 58.4573 157.537 58.2602 157.617 58.0098L158.051 56.8131C158.15 56.5673 158.322 56.4337 158.487 56.469C158.576 56.495 158.664 56.5211 158.752 56.5472C158.84 56.5732 158.928 56.5993 159.012 56.6242C159.1 56.6503 159.183 56.6752 159.272 56.7013C159.36 56.7273 159.443 56.7523 159.527 56.7772ZM157.031 56.0361C157.199 56.1005 157.255 56.3032 157.174 56.5536L156.74 57.7503C156.642 57.9916 156.466 58.1241 156.292 58.0821C156.199 58.0549 156.103 58.0221 156.01 57.9949C155.913 57.9665 155.821 57.9349 155.723 57.9065C155.626 57.8782 155.534 57.8465 155.432 57.817C155.334 57.7887 155.238 57.7559 155.14 57.7276C154.967 57.662 154.902 57.457 154.983 57.2067L155.411 56.0133C155.51 55.7675 155.69 55.6406 155.874 55.6804C155.971 55.7088 156.068 55.7416 156.166 55.7699C156.263 55.7983 156.36 55.8311 156.457 55.8594C156.555 55.8877 156.651 55.9206 156.744 55.9478C156.842 55.9761 156.939 56.0044 157.031 56.0361ZM154.27 55.1788C154.456 55.2522 154.522 55.4527 154.44 55.7075L154.017 56.9021C153.918 57.1479 153.739 57.2703 153.546 57.2237C153.445 57.1897 153.338 57.1591 153.237 57.1252C153.136 57.0912 153.029 57.0606 152.923 57.0255C152.817 56.9905 152.711 56.9554 152.609 56.9259C152.503 56.8908 152.397 56.8557 152.29 56.8251C152.1 56.7506 152.025 56.5433 152.106 56.2929L152.523 55.1017C152.622 54.8604 152.811 54.7358 153.013 54.7847C153.119 54.8198 153.226 54.8504 153.332 54.8855C153.437 54.9205 153.543 54.9556 153.65 54.9862C153.756 55.0213 153.858 55.0508 153.964 55.0859C154.062 55.1142 154.163 55.1481 154.27 55.1788ZM151.27 54.2209C151.469 54.3022 151.544 54.5051 151.467 54.761L151.05 55.9522C150.952 56.1935 150.759 56.3125 150.558 56.2592C150.447 56.223 150.337 56.1868 150.226 56.1505C150.115 56.1143 150 56.077 149.89 56.0407C149.779 56.0045 149.664 55.9672 149.554 55.9265C149.439 55.8891 149.328 55.8529 149.214 55.8111C149.01 55.7286 148.928 55.5146 148.997 55.2709L149.409 54.0831C149.502 53.8406 149.705 53.7194 149.919 53.7806C150.035 53.818 150.145 53.8542 150.26 53.8916C150.376 53.9289 150.486 53.9651 150.602 54.0025C150.717 54.0398 150.827 54.0761 150.938 54.1123C151.044 54.1474 151.154 54.1836 151.27 54.2209ZM148.067 53.1527C148.281 53.2374 148.364 53.447 148.287 53.7029L147.881 54.8875C147.789 55.1254 147.587 55.2422 147.368 55.1798C147.254 55.138 147.134 55.0995 147.015 55.0565C146.896 55.0136 146.776 54.9751 146.662 54.9333C146.543 54.8903 146.423 54.8518 146.304 54.8088C146.185 54.7659 146.065 54.7274 145.947 54.6844C145.734 54.5952 145.643 54.3789 145.712 54.1353L146.117 52.9507C146.211 52.7083 146.417 52.5972 146.64 52.6606C146.759 52.7036 146.879 52.7421 146.998 52.7851C147.117 52.828 147.237 52.8665 147.356 52.9095C147.474 52.9524 147.594 52.9909 147.714 53.0294C147.832 53.0769 147.947 53.1142 148.067 53.1527ZM144.703 51.9932C144.925 52.0847 145.017 52.301 144.947 52.5491L144.547 53.7303C144.454 53.9683 144.248 54.0794 144.021 54.0103C143.898 53.9662 143.774 53.9221 143.655 53.8792C143.532 53.8351 143.408 53.791 143.285 53.7469C143.161 53.7028 143.037 53.6587 142.914 53.6146C142.79 53.5705 142.667 53.5264 142.543 53.4823C142.322 53.3908 142.221 53.1678 142.29 52.9241L142.685 51.7462C142.777 51.5083 142.988 51.3983 143.219 51.4685C143.343 51.5126 143.466 51.5567 143.595 51.602C143.718 51.6461 143.842 51.6902 143.965 51.7343C144.089 51.7784 144.213 51.8225 144.336 51.8666C144.455 51.9095 144.58 51.9491 144.703 51.9932ZM141.217 50.7427C141.442 50.8398 141.548 51.0595 141.478 51.3076L141.09 52.4821C140.998 52.7156 140.788 52.8256 140.552 52.7498C140.424 52.7045 140.302 52.656 140.173 52.6107C140.046 52.561 139.923 52.5169 139.795 52.4672C139.668 52.4175 139.54 52.3723 139.413 52.3226C139.285 52.2729 139.157 52.2276 139.03 52.1779C138.806 52.0764 138.7 51.8567 138.764 51.6119L139.146 50.4451C139.238 50.2072 139.448 50.1016 139.683 50.1775C139.81 50.2272 139.939 50.2724 140.066 50.3221C140.194 50.3674 140.321 50.4171 140.449 50.4623C140.577 50.512 140.705 50.5573 140.833 50.6025C140.96 50.6522 141.089 50.6975 141.217 50.7427ZM137.645 49.4146C137.878 49.5184 137.98 49.737 137.914 49.9863L137.534 51.1485C137.442 51.382 137.234 51.4831 136.994 51.4061C136.867 51.3564 136.74 51.3067 136.608 51.2558C136.481 51.2061 136.353 51.1564 136.222 51.1056C136.094 51.0559 135.962 51.005 135.835 50.9553C135.708 50.9056 135.576 50.8548 135.449 50.805C135.216 50.7012 135.111 50.4771 135.175 50.2323L135.55 49.0733C135.641 48.8398 135.849 48.7388 136.089 48.8158C136.217 48.8655 136.348 48.9163 136.476 48.966C136.603 49.0157 136.735 49.0666 136.862 49.1163C136.989 49.166 137.121 49.2168 137.248 49.2665C137.386 49.3141 137.518 49.3649 137.645 49.4146ZM134.037 48.0114C134.27 48.1152 134.374 48.3439 134.311 48.5842L133.942 49.7398C133.855 49.9744 133.643 50.0699 133.405 49.984C133.273 49.9331 133.147 49.8789 133.02 49.8292C132.893 49.7795 132.762 49.7242 132.635 49.6745C132.503 49.6236 132.377 49.5695 132.251 49.5153C132.119 49.4644 131.993 49.4103 131.866 49.3561C131.634 49.2478 131.529 49.0236 131.588 48.7822L131.95 47.6344C132.035 47.4042 132.247 47.3088 132.486 47.3902C132.618 47.4411 132.744 47.4952 132.876 47.5461C133.008 47.5969 133.134 47.6511 133.266 47.702C133.398 47.7528 133.524 47.807 133.656 47.8578C133.773 47.9097 133.905 47.9606 134.037 48.0114ZM130.478 46.5681C130.575 46.6155 130.6 46.6783 130.586 46.8169C130.692 46.9371 130.739 46.9865 130.706 47.1251L130.35 48.2651C130.299 48.3947 130.238 48.3989 130.091 48.4107C130.028 48.5279 129.972 48.5568 129.876 48.5195C129.782 48.4778 129.682 48.4394 129.587 48.3976C129.493 48.3559 129.394 48.313 129.299 48.2757C129.204 48.2339 129.11 48.1922 129.01 48.1538C128.916 48.112 128.82 48.0747 128.726 48.033C128.557 47.9495 128.489 47.7389 128.551 47.5031L128.9 46.3664C128.981 46.1351 129.147 46.0239 129.326 46.0861C129.421 46.1278 129.516 46.1651 129.615 46.208C129.709 46.2497 129.805 46.287 129.904 46.3299C129.998 46.3717 130.098 46.4101 130.192 46.4518C130.283 46.488 130.383 46.5264 130.478 46.5681ZM127.825 45.4483C127.989 45.5306 128.053 45.74 127.99 45.9759L127.642 47.1081C127.562 47.3349 127.402 47.4428 127.228 47.3818C127.138 47.3411 127.048 47.3005 126.953 47.2632C126.863 47.2226 126.774 47.182 126.68 47.1403C126.59 47.0996 126.5 47.059 126.41 47.0229C126.32 46.9823 126.23 46.9416 126.141 46.901C125.982 46.8154 125.918 46.6104 125.984 46.3757L126.326 45.2513C126.406 45.0245 126.563 44.9109 126.732 44.9709C126.822 45.0115 126.912 45.0476 127.002 45.0882C127.092 45.1289 127.182 45.165 127.272 45.2056C127.362 45.2462 127.452 45.2824 127.547 45.3241C127.641 45.3659 127.735 45.4076 127.825 45.4483ZM125.325 44.3558C125.479 44.4358 125.543 44.6453 125.481 44.8812L125.14 46.001C125.061 46.2279 124.906 46.3325 124.746 46.2748C124.661 46.2353 124.571 46.1947 124.486 46.1552C124.401 46.1158 124.312 46.0751 124.227 46.0357C124.142 45.9962 124.057 45.9567 123.967 45.9161C123.883 45.8766 123.798 45.8371 123.713 45.7977C123.564 45.7143 123.504 45.5104 123.565 45.279L123.898 44.167C123.973 43.939 124.129 43.8299 124.288 43.8921C124.373 43.9315 124.458 43.971 124.549 44.0072C124.634 44.0466 124.718 44.0861 124.809 44.1223C124.894 44.1617 124.984 44.2024 125.07 44.2374C125.15 44.2757 125.235 44.3152 125.325 44.3558ZM122.936 43.2761C123.084 43.3594 123.14 43.5621 123.079 43.7935L122.746 44.9011C122.672 45.1247 122.522 45.2304 122.368 45.1694C122.283 45.1299 122.203 45.0916 122.118 45.0521C122.038 45.0137 121.953 44.9743 121.873 44.9359C121.792 44.8976 121.707 44.8581 121.627 44.8198C121.547 44.7814 121.467 44.7431 121.382 44.7036C121.238 44.6214 121.182 44.4186 121.242 44.1917L121.568 43.0919C121.642 42.8684 121.787 42.7615 121.942 42.8181C122.023 42.8564 122.108 42.8959 122.188 42.9342C122.268 42.9726 122.353 43.0121 122.433 43.0504C122.513 43.0887 122.598 43.1282 122.679 43.1666C122.77 43.1982 122.855 43.2377 122.936 43.2761ZM120.667 42.2113C120.807 42.2924 120.862 42.4951 120.802 42.7221L120.478 43.8174C120.404 44.0409 120.259 44.1433 120.115 44.0846C120.034 44.0462 119.959 44.009 119.879 43.9707C119.803 43.9335 119.723 43.8951 119.643 43.8568C119.562 43.8184 119.487 43.7812 119.411 43.744C119.336 43.7068 119.256 43.6685 119.181 43.6268C119.046 43.5468 118.996 43.3453 119.054 43.1228L119.372 42.0353C119.445 41.8163 119.586 41.7082 119.727 41.7614C119.802 41.7986 119.883 41.8369 119.958 41.8741C120.034 41.9113 120.114 41.9497 120.194 41.988C120.274 42.0264 120.35 42.0636 120.43 42.1019C120.511 42.1358 120.592 42.1741 120.667 42.2113ZM118.519 41.1661C118.649 41.2449 118.7 41.442 118.64 41.6689L118.324 42.752C118.251 42.971 118.116 43.0757 117.976 43.0181C117.9 42.9809 117.825 42.9437 117.755 42.9031C117.68 42.8659 117.609 42.8298 117.534 42.7882C117.459 42.751 117.388 42.7149 117.314 42.6732C117.238 42.636 117.167 42.5999 117.097 42.5594C116.967 42.4806 116.925 42.2857 116.979 42.0622L117.289 40.9869C117.362 40.7679 117.492 40.6621 117.627 40.7185C117.698 40.7546 117.774 40.7918 117.849 40.829C117.925 40.8662 117.996 40.9023 118.071 40.9395C118.147 40.9767 118.217 41.0128 118.293 41.05C118.372 41.0928 118.443 41.1288 118.519 41.1661ZM116.485 40.1391C116.61 40.2168 116.657 40.4128 116.597 40.6397L116.288 41.7105C116.217 41.925 116.087 42.0308 115.957 41.9711C115.886 41.935 115.815 41.8989 115.746 41.8584C115.675 41.8223 115.604 41.7862 115.539 41.7468C115.474 41.7074 115.403 41.6714 115.332 41.6353C115.261 41.5992 115.196 41.5598 115.125 41.5237C115.005 41.4472 114.962 41.2523 115.016 41.0288L115.318 39.9658C115.387 39.7456 115.511 39.6432 115.642 39.6985C115.712 39.7345 115.779 39.7695 115.849 39.8055C115.92 39.8416 115.986 39.8765 116.057 39.9126C116.128 39.9487 116.199 39.9848 116.265 40.0197C116.343 40.067 116.414 40.103 116.485 40.1391ZM114.569 39.1361C114.69 39.2127 114.728 39.4064 114.67 39.6243L114.369 40.6828C114.302 40.8985 114.179 40.9965 114.053 40.9424C113.987 40.9074 113.922 40.868 113.856 40.8331C113.789 40.7982 113.724 40.7587 113.658 40.7238C113.592 40.6889 113.527 40.6495 113.466 40.6157C113.399 40.5808 113.339 40.5425 113.273 40.5075C113.157 40.4321 113.124 40.2396 113.177 40.0205L113.471 38.9698C113.538 38.7541 113.658 38.6505 113.779 38.7035C113.845 38.7384 113.907 38.7722 113.973 38.8072C114.039 38.8421 114.105 38.877 114.165 38.9153C114.232 38.9502 114.298 38.9852 114.364 39.0201C114.437 39.0663 114.503 39.1012 114.569 39.1361ZM112.774 38.1526C112.885 38.2269 112.919 38.415 112.866 38.6341L112.573 39.6803C112.507 39.8915 112.389 39.9907 112.272 39.9387C112.211 39.905 112.15 39.8667 112.089 39.8329C112.027 39.7991 111.967 39.7608 111.905 39.727C111.844 39.6932 111.784 39.655 111.722 39.6212C111.661 39.5874 111.6 39.5491 111.539 39.5153C111.432 39.4422 111.398 39.2541 111.451 39.0349L111.742 37.9977C111.808 37.7865 111.923 37.6817 112.034 37.7369C112.095 37.7707 112.157 37.8045 112.217 37.8428C112.279 37.8766 112.34 37.9104 112.4 37.9487C112.462 37.9825 112.523 38.0163 112.584 38.0545C112.651 38.085 112.712 38.1188 112.774 38.1526ZM111.092 37.1919C111.194 37.2639 111.228 37.452 111.171 37.6655L110.886 38.6994C110.821 38.9062 110.712 39.0076 110.6 38.9568C110.543 38.9241 110.483 38.8859 110.426 38.8532C110.37 38.8205 110.314 38.7834 110.253 38.7496C110.196 38.717 110.14 38.6798 110.083 38.6472C110.027 38.6145 109.971 38.5774 109.914 38.5447C109.817 38.4739 109.788 38.2869 109.84 38.0723L110.122 37.0473C110.188 36.836 110.293 36.7335 110.399 36.7876C110.456 36.8202 110.513 36.8529 110.568 36.89C110.625 36.9227 110.682 36.9554 110.737 36.9925C110.794 37.0252 110.851 37.0578 110.911 37.0961C110.974 37.1254 111.035 37.1592 111.092 37.1919ZM109.524 36.2539C109.621 36.3248 109.646 36.5106 109.595 36.7208L109.314 37.7368C109.249 37.9436 109.146 38.0417 109.044 37.9887C108.988 37.9561 108.937 37.9201 108.885 37.8885C108.833 37.857 108.777 37.8199 108.725 37.7884C108.673 37.7568 108.617 37.7197 108.565 37.6882C108.513 37.6566 108.462 37.6207 108.405 37.588C108.313 37.5183 108.287 37.3369 108.339 37.1223L108.613 36.114C108.673 35.9061 108.776 35.8081 108.874 35.8554C108.926 35.8869 108.978 35.9185 109.034 35.9556C109.086 35.9871 109.143 36.0198 109.194 36.0558C109.246 36.0873 109.303 36.12 109.354 36.156C109.415 36.1898 109.472 36.2224 109.524 36.2539ZM108.068 35.3433C108.156 35.4119 108.182 35.5932 108.131 35.8034L107.858 36.8072C107.799 37.0106 107.696 37.1087 107.604 37.058C107.552 37.0265 107.506 36.9916 107.454 36.9601C107.401 36.9286 107.355 36.8937 107.308 36.8633C107.261 36.8329 107.21 36.7969 107.162 36.7665C107.115 36.7361 107.069 36.7013 107.017 36.6698C106.933 36.6023 106.912 36.4221 106.962 36.2164L107.233 35.2216C107.293 35.0137 107.39 34.9189 107.479 34.964C107.526 34.9944 107.577 35.0304 107.625 35.0608C107.672 35.0912 107.723 35.1272 107.77 35.1576C107.822 35.1891 107.87 35.2195 107.921 35.2555C107.97 35.2769 108.016 35.3118 108.068 35.3433ZM106.722 34.4543C106.805 34.5218 106.822 34.7009 106.772 34.9066L106.502 35.8969C106.444 36.0959 106.351 36.1962 106.263 36.1466C106.216 36.1163 106.174 36.0825 106.127 36.0522C106.079 36.0218 106.038 35.988 105.991 35.9577C105.943 35.9273 105.902 35.8935 105.854 35.8632C105.812 35.8339 105.765 35.799 105.723 35.7698C105.644 35.7035 105.628 35.5244 105.677 35.3232L105.939 34.3406C105.997 34.1417 106.091 34.0413 106.174 34.0897C106.217 34.119 106.263 34.1539 106.306 34.1831C106.353 34.2135 106.394 34.2472 106.442 34.2776C106.489 34.308 106.532 34.3372 106.578 34.3721C106.628 34.3935 106.675 34.4239 106.722 34.4543ZM105.483 33.596C105.557 33.6611 105.574 33.8357 105.524 34.0414L105.264 35.015C105.206 35.214 105.118 35.311 105.04 35.2637C104.997 35.2345 104.955 35.2008 104.913 35.1715C104.87 35.1422 104.829 35.1085 104.786 35.0793C104.743 35.05 104.702 35.0163 104.664 34.9882C104.621 34.9589 104.58 34.9252 104.542 34.8971C104.473 34.8331 104.455 34.6584 104.504 34.4572L104.762 33.4926C104.82 33.2936 104.904 33.1955 104.982 33.2427C105.024 33.272 105.062 33.3001 105.104 33.3338C105.146 33.3631 105.189 33.3923 105.226 33.4249C105.269 33.4542 105.31 33.4879 105.353 33.5171C105.399 33.533 105.441 33.5622 105.483 33.596ZM104.348 32.7581C104.417 32.8222 104.43 32.9956 104.381 33.1969L104.124 34.157C104.067 34.3515 103.985 34.4452 103.91 34.4035C103.872 34.3754 103.835 34.3428 103.793 34.3136C103.755 34.2855 103.718 34.2529 103.68 34.2248C103.642 34.1966 103.605 34.1641 103.567 34.1359C103.529 34.1078 103.492 34.0752 103.455 34.0471C103.39 33.9842 103.381 33.8164 103.43 33.6151L103.68 32.6628C103.738 32.4638 103.816 32.369 103.884 32.414C103.922 32.4421 103.96 32.4702 103.997 32.5028C104.035 32.5309 104.073 32.559 104.11 32.5916C104.148 32.6197 104.186 32.6479 104.223 32.6804C104.269 32.6963 104.305 32.7289 104.348 32.7581ZM103.311 31.9486C103.375 32.0115 103.38 32.1783 103.332 32.375L103.083 33.3229C103.027 33.5129 102.949 33.6077 102.885 33.5639C102.852 33.5369 102.815 33.5043 102.782 33.4773C102.749 33.4503 102.712 33.4178 102.679 33.3908C102.645 33.3638 102.613 33.3324 102.575 33.3042C102.542 33.2773 102.51 33.2458 102.472 33.2177C102.412 33.1559 102.408 32.9892 102.454 32.7969L102.7 31.8624C102.757 31.6679 102.83 31.572 102.894 31.6159C102.927 31.6428 102.96 31.6743 102.998 31.7024C103.031 31.7294 103.069 31.7575 103.101 31.7889C103.134 31.8159 103.172 31.844 103.204 31.8755C103.241 31.8891 103.278 31.9216 103.311 31.9486ZM102.377 31.1641C102.432 31.2248 102.437 31.387 102.39 31.5838L102.145 32.5138C102.094 32.7049 102.017 32.7953 101.958 32.7525C101.925 32.7256 101.897 32.6953 101.864 32.6683C101.831 32.6413 101.803 32.611 101.77 32.584C101.737 32.557 101.709 32.5267 101.676 32.4997C101.647 32.4739 101.615 32.4424 101.587 32.4166C101.536 32.3571 101.531 32.1948 101.577 32.0026L101.815 31.0803C101.867 30.8892 101.939 30.7977 101.994 30.8349C102.023 30.8607 102.056 30.8877 102.083 30.918C102.117 30.945 102.145 30.9708 102.177 31.0023C102.211 31.0292 102.239 31.0551 102.271 31.0865C102.315 31.1113 102.344 31.1371 102.377 31.1641ZM101.541 30.408C101.591 30.4675 101.593 30.6241 101.545 30.8209L101.308 31.7386C101.258 31.9253 101.191 32.0179 101.136 31.9763C101.128 31.9695 101.116 31.9572 101.108 31.9505C101.099 31.9437 101.087 31.9314 101.079 31.9246C101.071 31.9179 101.059 31.9055 101.051 31.8988C101.043 31.8876 101.035 31.8808 101.022 31.8729C101.002 31.8538 100.986 31.8359 100.966 31.8168C100.946 31.7977 100.93 31.7797 100.91 31.7606C100.89 31.7415 100.874 31.7236 100.854 31.7045C100.834 31.6854 100.818 31.6674 100.798 31.6483C100.748 31.5888 100.747 31.4277 100.792 31.2399L101.027 30.3311C101.077 30.1444 101.144 30.0518 101.2 30.0889C101.22 30.108 101.236 30.126 101.257 30.1406C101.277 30.1597 101.294 30.1732 101.314 30.1923C101.335 30.2114 101.35 30.2293 101.371 30.244C101.392 30.2631 101.407 30.281 101.429 30.2957C101.437 30.3024 101.444 30.3136 101.457 30.3215C101.465 30.3282 101.477 30.3406 101.486 30.3473C101.494 30.3541 101.506 30.3664 101.514 30.3732C101.52 30.3889 101.528 30.4001 101.541 30.408ZM100.748 29.6766C100.799 29.7316 100.8 29.8927 100.755 30.0805L100.521 30.9849C100.472 31.1671 100.405 31.2597 100.349 31.2226C100.32 31.1967 100.292 31.1709 100.264 31.1406C100.236 31.1147 100.207 31.0889 100.18 31.0586C100.151 31.0327 100.123 31.0069 100.094 30.981C100.066 30.9552 100.037 30.9294 100.009 30.9035C99.9583 30.844 99.9553 30.6918 100.001 30.504L100.231 29.6131C100.28 29.4309 100.347 29.3383 100.403 29.3754C100.432 29.4013 100.46 29.4271 100.489 29.4529C100.517 29.4788 100.546 29.5046 100.574 29.5305C100.603 29.5563 100.632 29.5822 100.66 29.608C100.691 29.6249 100.719 29.6507 100.748 29.6766ZM99.9405 28.9653C99.9918 29.0203 99.9937 29.177 99.9493 29.3603L99.7199 30.2467C99.672 30.4245 99.6048 30.5171 99.5492 30.48C99.5206 30.4541 99.4921 30.4283 99.4635 30.4024C99.4349 30.3766 99.4064 30.3508 99.3778 30.3249C99.3493 30.2991 99.3207 30.2732 99.2922 30.2474C99.2636 30.2215 99.2351 30.1957 99.2065 30.1699C99.1552 30.1148 99.1522 29.9627 99.1919 29.7782L99.4144 28.8995C99.4635 28.7173 99.5306 28.6247 99.5863 28.6619C99.6148 28.6877 99.6434 28.7135 99.6777 28.7361C99.7063 28.7619 99.7359 28.7833 99.7645 28.8091C99.793 28.8349 99.8216 28.8608 99.8512 28.8822C99.8776 28.9169 99.9072 28.9383 99.9405 28.9653ZM99.1078 28.2763C99.1591 28.3313 99.1667 28.4846 99.1224 28.668L98.9009 29.5421C98.853 29.7199 98.7858 29.8125 98.7255 29.7742C98.6969 29.7484 98.6673 29.727 98.634 29.7C98.6055 29.6742 98.5758 29.6528 98.5426 29.6258C98.514 29.6 98.4844 29.5786 98.4558 29.5528C98.4273 29.5269 98.3976 29.5056 98.3644 29.4786C98.3131 29.4236 98.3043 29.2747 98.3476 29.0958L98.568 28.2261C98.6159 28.0484 98.6831 27.9558 98.7434 27.9941C98.772 28.0199 98.8016 28.0413 98.8349 28.0683C98.8634 28.0941 98.8931 28.1155 98.9263 28.1424C98.9549 28.1683 98.9845 28.1897 99.0178 28.2166C99.0496 28.2291 99.0781 28.2549 99.1078 28.2763ZM98.2649 27.6085C98.3173 27.659 98.325 27.8124 98.2817 27.9912L98.0624 28.8565C98.0155 29.0297 97.9484 29.1223 97.888 29.0841C97.8595 29.0582 97.8251 29.0357 97.7966 29.0099C97.768 28.984 97.7384 28.9627 97.7052 28.9357C97.6766 28.9098 97.6423 28.8873 97.6137 28.8615C97.5852 28.8356 97.5508 28.8131 97.5223 28.7873C97.4699 28.7367 97.4611 28.5879 97.5044 28.409L97.7215 27.5528C97.7684 27.3795 97.8356 27.2869 97.897 27.3207C97.9266 27.342 97.9599 27.369 97.9895 27.3904C98.0181 27.4162 98.0524 27.4387 98.082 27.4601C98.1117 27.4815 98.1449 27.5085 98.1746 27.5298C98.201 27.5646 98.2353 27.5871 98.2649 27.6085ZM97.4026 26.9597C97.455 27.0102 97.4637 27.159 97.4252 27.3391L97.2091 28.1909C97.1622 28.3641 97.0962 28.4523 97.0347 28.4185C97.0051 28.3971 96.9718 28.3701 96.9422 28.3488C96.9126 28.3274 96.8793 28.3004 96.8497 28.279C96.8211 28.2532 96.7868 28.2307 96.7572 28.2093C96.7275 28.1879 96.6943 28.161 96.6646 28.1396C96.6122 28.089 96.6024 27.9447 96.6399 27.7691L96.8538 26.9263C96.9007 26.753 96.9667 26.6649 97.0293 26.6942C97.0589 26.7156 97.0932 26.7381 97.1229 26.7594C97.1525 26.7808 97.1868 26.8033 97.2154 26.8292C97.245 26.8505 97.2794 26.873 97.3079 26.8989C97.3386 26.9158 97.373 26.9383 97.4026 26.9597ZM96.5244 26.3354C96.5768 26.3859 96.5866 26.5303 96.5491 26.7058L96.341 27.5454C96.2952 27.7141 96.2291 27.8023 96.1666 27.773C96.1323 27.7505 96.1026 27.7291 96.0741 27.7032C96.0445 27.6819 96.0101 27.6594 95.9816 27.6335C95.9519 27.6122 95.9176 27.5897 95.888 27.5683C95.8583 27.5469 95.824 27.5244 95.7954 27.4986C95.7383 27.4469 95.7274 27.307 95.7696 27.1326L95.9766 26.2975C96.0224 26.1287 96.0896 26.0361 96.151 26.0699C96.1854 26.0924 96.215 26.1138 96.2493 26.1363C96.279 26.1577 96.3133 26.1802 96.3429 26.2015C96.3726 26.2229 96.4069 26.2454 96.4366 26.2668C96.4604 26.2915 96.4947 26.314 96.5244 26.3354ZM95.6335 25.7222C95.6917 25.7694 95.7015 25.9138 95.6593 26.0882L95.4534 26.9188C95.4076 27.0876 95.3415 27.1757 95.2801 27.1419C95.2458 27.1194 95.2161 27.0981 95.1818 27.0755C95.1521 27.0542 95.1178 27.0317 95.0835 27.0092C95.0538 26.9878 95.0195 26.9653 94.9852 26.9428C94.9509 26.9203 94.9212 26.8989 94.8869 26.8764C94.8287 26.8292 94.8189 26.6848 94.86 26.5149L95.0637 25.6932C95.1096 25.5245 95.1756 25.4363 95.2381 25.4656C95.2678 25.487 95.3021 25.5095 95.3364 25.532C95.3708 25.5545 95.4004 25.5759 95.4348 25.5984C95.4691 25.6209 95.4987 25.6423 95.5331 25.6648C95.5685 25.6828 95.5992 25.6997 95.6335 25.7222ZM94.7279 25.1292C94.786 25.1764 94.798 25.3118 94.7605 25.4873L94.5568 26.309C94.512 26.4733 94.446 26.5615 94.3834 26.5321C94.3491 26.5096 94.3195 26.4883 94.2851 26.4657C94.2508 26.4432 94.2212 26.4219 94.1868 26.3994C94.1525 26.3769 94.1229 26.3555 94.0875 26.3374C94.0531 26.3149 94.0235 26.2936 93.9892 26.2711C93.931 26.2239 93.9201 26.084 93.9554 25.9174L94.157 25.1047C94.2017 24.9403 94.2689 24.8477 94.3314 24.8771C94.3657 24.8996 94.3965 24.9165 94.4308 24.939C94.4651 24.9615 94.4958 24.9784 94.5302 25.0009C94.5645 25.0234 94.5952 25.0403 94.6296 25.0628C94.6628 25.0898 94.6924 25.1111 94.7279 25.1292ZM93.8074 24.5562C93.8656 24.6034 93.8776 24.7388 93.8411 24.9099L93.6453 25.7193C93.6006 25.8836 93.5345 25.9717 93.472 25.9424C93.4377 25.9199 93.407 25.903 93.3726 25.8805C93.3383 25.858 93.3076 25.8411 93.2732 25.8186C93.2389 25.7961 93.2082 25.7792 93.1739 25.7567C93.1395 25.7342 93.1088 25.7173 93.0745 25.6948C93.0163 25.6475 93.0043 25.5121 93.0396 25.3455L93.2344 24.5406C93.2791 24.3763 93.3452 24.2882 93.4124 24.3186C93.4467 24.3411 93.4774 24.358 93.5118 24.3805C93.5461 24.4031 93.5768 24.42 93.6112 24.4425C93.6455 24.465 93.6762 24.4819 93.7105 24.5044C93.7423 24.5168 93.7731 24.5337 93.8074 24.5562ZM92.8743 23.9944C92.9336 24.0371 92.9455 24.1725 92.9091 24.3436L92.7155 25.144C92.6707 25.3083 92.6057 25.392 92.5432 25.3627C92.5089 25.3402 92.4735 25.3222 92.4438 25.3008C92.4095 25.2783 92.3741 25.2602 92.3445 25.2389C92.3101 25.2164 92.2747 25.1983 92.2451 25.177C92.2097 25.1589 92.1753 25.1364 92.1446 25.1195C92.0853 25.0768 92.0687 24.9402 92.1087 24.7748L92.3013 23.9788C92.346 23.8145 92.4121 23.7263 92.4746 23.7557C92.51 23.7737 92.5443 23.7962 92.575 23.8131C92.6105 23.8311 92.6448 23.8537 92.6755 23.8706C92.7109 23.8886 92.7406 23.91 92.776 23.928C92.8092 23.955 92.8389 23.9763 92.8743 23.9944ZM91.9264 23.4526C91.9856 23.4954 92.0023 23.6319 91.967 23.7985L91.7744 24.5945C91.7308 24.7543 91.6647 24.8425 91.5975 24.812C91.5621 24.794 91.5277 24.7715 91.497 24.7546C91.4616 24.7365 91.4273 24.714 91.3966 24.6971C91.3622 24.6746 91.3268 24.6566 91.2961 24.6397C91.2607 24.6216 91.2263 24.5991 91.1956 24.5822C91.1363 24.5395 91.1186 24.4074 91.1539 24.2408L91.3443 23.4538C91.388 23.294 91.4541 23.2058 91.5177 23.2307C91.5531 23.2487 91.5885 23.2667 91.6228 23.2893C91.6582 23.3073 91.6926 23.3298 91.7233 23.3467C91.7587 23.3647 91.793 23.3872 91.8237 23.4041C91.8613 23.4132 91.892 23.4301 91.9264 23.4526ZM90.9658 22.922C91.0251 22.9648 91.0429 23.0969 91.0075 23.2635L90.8171 24.0505C90.7735 24.2103 90.7085 24.294 90.6402 24.268C90.6048 24.25 90.5704 24.2275 90.535 24.2094C90.4996 24.1914 90.4642 24.1733 90.4299 24.1508C90.3944 24.1328 90.359 24.1148 90.3247 24.0923C90.2893 24.0742 90.2539 24.0562 90.2195 24.0337C90.1603 23.9909 90.1425 23.8588 90.1767 23.6967L90.3661 22.9142C90.4097 22.7543 90.4758 22.6662 90.5441 22.6922C90.5795 22.7102 90.6149 22.7283 90.6503 22.7463C90.6857 22.7643 90.7212 22.7824 90.7566 22.8004C90.792 22.8184 90.8274 22.8365 90.8628 22.8545C90.8997 22.8871 90.9351 22.9051 90.9658 22.922ZM89.9962 22.4082C90.0555 22.4509 90.0733 22.583 90.039 22.7451L89.8508 23.5232C89.8071 23.683 89.7421 23.7667 89.6738 23.7407C89.6384 23.7227 89.603 23.7047 89.5676 23.6866C89.5322 23.6686 89.4968 23.6506 89.4614 23.6325C89.4259 23.6145 89.3905 23.5964 89.3551 23.5784C89.3197 23.5604 89.2843 23.5423 89.2489 23.5243C89.1838 23.4849 89.1661 23.3528 89.205 23.1918L89.3875 22.4171C89.43 22.2617 89.4961 22.1736 89.5644 22.1996C89.5998 22.2176 89.6352 22.2356 89.6707 22.2537C89.7061 22.2717 89.7415 22.2897 89.7769 22.3078C89.8123 22.3258 89.8477 22.3438 89.8831 22.3619C89.9254 22.3721 89.9608 22.3901 89.9962 22.4082ZM88.9645 21.884C89.0379 21.9302 89.065 22.0645 89.0308 22.2267L88.8494 22.9969C88.8068 23.1523 88.7278 23.2326 88.6501 23.2043C88.6053 23.184 88.5662 23.1603 88.5214 23.14C88.4766 23.1197 88.4376 23.0961 88.3928 23.0758C88.348 23.0555 88.3089 23.0318 88.2641 23.0115C88.2193 22.9912 88.1803 22.9676 88.1355 22.9473C88.0621 22.9011 88.0349 22.7667 88.0681 22.6091L88.2484 21.8433C88.291 21.6879 88.3654 21.6065 88.4478 21.6359C88.4926 21.6562 88.5327 21.6754 88.5764 21.7002C88.6212 21.7205 88.6613 21.7397 88.7051 21.7644C88.7499 21.7848 88.79 21.8039 88.8337 21.8287C88.8796 21.8445 88.9244 21.8649 88.9645 21.884ZM87.7716 21.3067C87.845 21.3528 87.8732 21.4827 87.839 21.6448L87.6587 22.4106C87.6161 22.566 87.5417 22.6474 87.4593 22.618C87.4192 22.5988 87.3744 22.5785 87.3296 22.5582C87.2848 22.5379 87.2447 22.5187 87.1999 22.4984C87.1551 22.4781 87.115 22.459 87.0702 22.4386C87.0253 22.4183 86.9852 22.3992 86.9404 22.3789C86.8671 22.3327 86.8341 22.2017 86.8673 22.044L87.0465 21.2827C87.0891 21.1273 87.1635 21.0459 87.2459 21.0753C87.2907 21.0956 87.3308 21.1148 87.3756 21.1351C87.4204 21.1554 87.4605 21.1746 87.5053 21.1949C87.5501 21.2152 87.5902 21.2344 87.635 21.2547C87.6867 21.2672 87.7268 21.2864 87.7716 21.3067ZM86.5733 20.7517C86.6525 20.7945 86.6807 20.9244 86.6476 21.082L86.4694 21.8389C86.4279 21.9898 86.3535 22.0712 86.2701 22.0463C86.23 22.0271 86.1852 22.0068 86.1403 21.9865C86.1002 21.9673 86.0554 21.947 86.0106 21.9267C85.9705 21.9075 85.9257 21.8872 85.8809 21.8669C85.8408 21.8477 85.796 21.8274 85.7512 21.8071C85.6767 21.7654 85.6485 21.6355 85.6769 21.4768L85.8493 20.7233C85.8872 20.5667 85.9663 20.4865 86.0486 20.5159C86.0935 20.5362 86.1336 20.5554 86.1795 20.5712C86.2243 20.5915 86.2644 20.6107 86.3103 20.6265C86.3551 20.6468 86.3952 20.666 86.44 20.6863C86.4873 20.7167 86.5285 20.7314 86.5733 20.7517ZM85.3686 20.2235C85.443 20.2652 85.4723 20.3906 85.4439 20.5494L85.2668 21.3018C85.23 21.4538 85.1509 21.5341 85.0722 21.5103C85.0273 21.49 84.9872 21.4708 84.9413 21.455C84.8965 21.4347 84.8564 21.4155 84.8105 21.3997C84.7657 21.3794 84.7256 21.3602 84.6797 21.3444C84.6349 21.324 84.5937 21.3093 84.5489 21.289C84.4745 21.2474 84.4451 21.1219 84.4725 20.9676L84.6438 20.2186C84.6806 20.0666 84.7608 19.9818 84.8431 20.0112C84.8833 20.0304 84.9292 20.0462 84.974 20.0665C85.0188 20.0868 85.06 20.1015 85.1048 20.1218C85.1496 20.1422 85.1908 20.1569 85.2356 20.1772C85.2836 20.1841 85.3238 20.2032 85.3686 20.2235ZM84.1584 19.7177C84.2386 19.7561 84.2668 19.886 84.2347 20.0392L84.0646 20.7837C84.0231 20.9346 83.9487 21.016 83.8699 20.9922C83.8298 20.9731 83.7839 20.9572 83.7391 20.9369C83.699 20.9177 83.6531 20.9019 83.6083 20.8816C83.5635 20.8613 83.5223 20.8466 83.4775 20.8263C83.4327 20.806 83.3915 20.7913 83.3456 20.7754C83.2711 20.7338 83.236 20.6117 83.2692 20.454L83.4394 19.7095C83.4762 19.5574 83.5563 19.4727 83.6398 19.4976C83.6857 19.5134 83.7258 19.5326 83.7717 19.5485C83.8176 19.5643 83.8577 19.5835 83.9036 19.5993C83.9484 19.6196 83.9896 19.6343 84.0344 19.6546C84.0734 19.6783 84.1136 19.6974 84.1584 19.7177ZM82.9438 19.2298C83.0241 19.2682 83.0534 19.3936 83.0213 19.5468L82.8522 20.2869C82.8154 20.4389 82.7363 20.5192 82.6575 20.4954C82.608 20.4739 82.5528 20.4558 82.5032 20.4344C82.4537 20.4129 82.3985 20.3948 82.3489 20.3734C82.2994 20.3519 82.2442 20.3338 82.1946 20.3124C82.1451 20.2909 82.0899 20.2728 82.0404 20.2514C81.9471 20.2052 81.9073 20.0819 81.9347 19.9276L82.1038 19.1875C82.1406 19.0355 82.2291 18.9575 82.3267 18.9858C82.3772 19.0028 82.4314 19.0254 82.482 19.0424C82.5315 19.0638 82.5868 19.0819 82.6363 19.1034C82.6858 19.1248 82.7411 19.1429 82.7906 19.1644C82.8344 19.1891 82.8896 19.2072 82.9438 19.2298ZM81.4768 18.6761C81.5711 18.7178 81.6145 18.8467 81.5824 18.9998L81.4191 19.7366C81.3823 19.8886 81.2938 19.9666 81.1962 19.9383C81.1409 19.9202 81.0914 19.8987 81.0409 19.8818C80.9856 19.8636 80.9361 19.8422 80.8808 19.8241C80.8302 19.8071 80.776 19.7845 80.7254 19.7676C80.6701 19.7495 80.6206 19.728 80.5653 19.7099C80.471 19.6681 80.4323 19.5404 80.4586 19.3906L80.6208 18.6583C80.6576 18.5063 80.7461 18.4283 80.8437 18.4566C80.899 18.4747 80.9485 18.4962 81.0038 18.5143C81.059 18.5324 81.1085 18.5538 81.1638 18.572C81.2191 18.5901 81.2686 18.6115 81.3239 18.6296C81.372 18.6365 81.4262 18.6591 81.4768 18.6761ZM80.0021 18.1536C80.0964 18.1954 80.1409 18.3197 80.1135 18.474L79.9513 19.2063C79.9156 19.3539 79.8271 19.4319 79.7284 19.408C79.6731 19.3899 79.6226 19.3729 79.5683 19.3504C79.5131 19.3322 79.4625 19.3153 79.4083 19.2927C79.353 19.2746 79.3024 19.2576 79.2471 19.2395C79.1918 19.2214 79.1412 19.2044 79.086 19.1863C78.9916 19.1446 78.9471 19.0202 78.9781 18.8715L79.1404 18.1392C79.1761 17.9916 79.2657 17.9092 79.3643 17.933C79.4196 17.9512 79.4702 17.9681 79.5255 17.9862C79.5808 18.0043 79.6313 18.0213 79.6866 18.0394C79.7419 18.0575 79.7925 18.0745 79.8478 18.0926C79.8962 18.1185 79.9515 18.1366 80.0021 18.1536ZM78.5162 17.6569C78.6116 17.6941 78.6561 17.8185 78.6287 17.9728L78.4676 18.7006C78.4319 18.8482 78.3423 18.9307 78.2437 18.9068C78.1884 18.8887 78.1378 18.8717 78.0825 18.8536C78.0272 18.8355 77.9766 18.8185 77.9213 18.8004C77.8661 18.7823 77.8155 18.7653 77.7602 18.7472C77.7049 18.7291 77.6543 18.7121 77.599 18.694C77.5036 18.6567 77.4591 18.5324 77.4854 18.3825L77.6419 17.6536C77.6787 17.5016 77.7672 17.4236 77.8705 17.4486C77.9258 17.4667 77.9764 17.4836 78.0317 17.5018C78.087 17.5199 78.1375 17.5368 78.1939 17.5505C78.2492 17.5686 78.2998 17.5856 78.3551 17.6037C78.4093 17.6262 78.4599 17.6432 78.5162 17.6569ZM77.0134 17.1891C77.1088 17.2264 77.1544 17.3463 77.127 17.5006L76.9705 18.2296C76.9348 18.3771 76.8453 18.4596 76.7466 18.4357C76.6913 18.4176 76.6397 18.4051 76.5844 18.387C76.5291 18.3689 76.4774 18.3564 76.4221 18.3383C76.3668 18.3202 76.3152 18.3077 76.2599 18.2896C76.2046 18.2715 76.1529 18.2589 76.0976 18.2408C76.0022 18.2036 75.9567 18.0837 75.983 17.9338L76.1395 17.2049C76.1752 17.0573 76.2647 16.9749 76.3644 16.9942C76.4197 17.0124 76.4714 17.0249 76.5267 17.043C76.582 17.0611 76.6336 17.0736 76.6889 17.0917C76.7442 17.1098 76.8006 17.1234 76.8512 17.1404C76.9065 17.1585 76.957 17.1755 77.0134 17.1891ZM75.4618 16.738C75.5713 16.7787 75.6263 16.9009 75.6 17.0507L75.4435 17.7796C75.4078 17.9272 75.3088 18.0074 75.195 17.9846C75.135 17.9653 75.074 17.9506 75.0129 17.9358C74.9518 17.921 74.8919 17.9018 74.8261 17.8859C74.765 17.8711 74.7051 17.8519 74.644 17.8371C74.5829 17.8223 74.5229 17.8031 74.4619 17.7883C74.3513 17.7521 74.2963 17.6299 74.3226 17.4801L74.4791 16.7511C74.5148 16.6035 74.6138 16.5234 74.7287 16.5417C74.7897 16.5565 74.8497 16.5757 74.9108 16.5905C74.9719 16.6053 75.0318 16.6245 75.0929 16.6393C75.154 16.654 75.2139 16.6733 75.2797 16.6892C75.3408 16.704 75.4008 16.7232 75.4618 16.738ZM73.7477 16.2807C73.8582 16.3169 73.9132 16.4391 73.8869 16.5889L73.7315 17.3134C73.6958 17.4609 73.5968 17.5411 73.4819 17.5228C73.4209 17.508 73.3598 17.4932 73.2998 17.474C73.2388 17.4592 73.1777 17.4444 73.1166 17.4297C73.0556 17.4149 72.9945 17.4001 72.9334 17.3854C72.8724 17.3706 72.8113 17.3558 72.7502 17.341C72.6397 17.3048 72.5836 17.1871 72.6099 17.0373L72.7617 16.3072C72.7974 16.1596 72.8974 16.075 73.0113 16.0978C73.0723 16.1125 73.1334 16.1273 73.1944 16.1421C73.2555 16.1569 73.3166 16.1716 73.3776 16.1864C73.4387 16.2012 73.4998 16.216 73.5608 16.2307C73.6266 16.2466 73.6866 16.2659 73.7477 16.2807ZM72.0306 15.8558C72.1412 15.892 72.1972 16.0097 72.1709 16.1595L72.0191 16.8896C71.9834 17.0372 71.8834 17.1218 71.7732 17.1046C71.7121 17.0899 71.6511 17.0751 71.59 17.0603C71.5289 17.0455 71.4679 17.0308 71.4068 17.016C71.3457 17.0012 71.2847 16.9864 71.2225 16.9761C71.1615 16.9614 71.1004 16.9466 71.0383 16.9363C70.9266 16.9045 70.8705 16.7868 70.8969 16.637L71.0486 15.9069C71.0854 15.7549 71.1797 15.6736 71.2957 15.6874C71.3567 15.7022 71.4178 15.717 71.4799 15.7273C71.541 15.7421 71.6021 15.7568 71.6631 15.7716C71.7242 15.7864 71.7853 15.8011 71.8463 15.8159C71.9027 15.8296 71.9685 15.8455 72.0306 15.8558ZM70.3038 15.4711C70.4155 15.5029 70.4715 15.6206 70.4441 15.7749L70.2924 16.505C70.2567 16.6525 70.1566 16.7372 70.0453 16.7245C69.9843 16.7097 69.9221 16.6994 69.8611 16.6846C69.8 16.6698 69.7378 16.6595 69.6768 16.6448C69.6146 16.6345 69.5536 16.6197 69.4914 16.6094C69.4293 16.5991 69.3682 16.5843 69.3061 16.574C69.1944 16.5423 69.1383 16.4246 69.1647 16.2747L69.3164 15.5446C69.3532 15.3926 69.4486 15.3068 69.5645 15.3207C69.6256 15.3354 69.6878 15.3457 69.7499 15.356C69.811 15.3708 69.8731 15.3811 69.9342 15.3959C69.9952 15.4107 70.0574 15.421 70.1185 15.4357C70.1795 15.4505 70.2417 15.4608 70.3038 15.4711ZM68.5673 15.1267C68.68 15.154 68.7361 15.2717 68.7087 15.426L68.5605 16.1617C68.5248 16.3093 68.4237 16.3984 68.3124 16.3857C68.2503 16.3754 68.1892 16.3606 68.1271 16.3503C68.0649 16.34 68.0028 16.3297 67.9417 16.3149C67.8796 16.3046 67.8174 16.2943 67.7553 16.284C67.6931 16.2737 67.631 16.2634 67.5688 16.2531C67.4561 16.2258 67.4 16.1081 67.4263 15.9583L67.5745 15.2226C67.6113 15.0706 67.7077 14.9803 67.8237 14.9941C67.8858 15.0044 67.948 15.0147 68.0091 15.0295C68.0712 15.0398 68.1333 15.0501 68.1991 15.066C68.2613 15.0763 68.3234 15.0866 68.3845 15.1014C68.4441 15.1016 68.5051 15.1164 68.5673 15.1267ZM66.8221 14.8181C66.9348 14.8454 66.9909 14.9631 66.9646 15.1129L66.8154 15.8531C66.7786 16.0051 66.6821 16.0954 66.5662 16.0815C66.504 16.0712 66.4419 16.0609 66.375 16.0495C66.3129 16.0392 66.2507 16.0289 66.1875 16.023C66.1254 16.0127 66.0632 16.0024 66.0011 15.9921C65.9389 15.9818 65.8768 15.9715 65.8135 15.9657C65.7008 15.9384 65.6437 15.8252 65.6653 15.6742L65.8145 14.934C65.8513 14.782 65.9488 14.6873 66.0648 14.7011C66.1269 14.7114 66.1891 14.7217 66.2559 14.7332C66.3181 14.7435 66.3802 14.7538 66.4424 14.7641C66.5045 14.7744 66.5667 14.7847 66.6335 14.7961C66.6931 14.7963 66.7553 14.8066 66.8221 14.8181ZM65.0531 14.5463C65.1669 14.5691 65.2277 14.6879 65.2003 14.8422L65.05 15.5869C65.0132 15.7389 64.9167 15.8292 64.7986 15.8243C64.7365 15.814 64.6732 15.8081 64.6064 15.7967C64.5442 15.7864 64.481 15.7806 64.4142 15.7691C64.3509 15.7633 64.2888 15.753 64.2219 15.7415C64.1587 15.7357 64.0919 15.7243 64.0286 15.7184C63.9148 15.6956 63.8577 15.5824 63.8804 15.427L64.0271 14.6767C64.0639 14.5247 64.1614 14.4299 64.2795 14.4349C64.3417 14.4452 64.4096 14.4521 64.4717 14.4624C64.5339 14.4727 64.6018 14.4797 64.664 14.49C64.7261 14.5003 64.7893 14.5061 64.8562 14.5176C64.9241 14.5245 64.991 14.536 65.0531 14.5463ZM63.2661 14.308C63.3799 14.3308 63.4417 14.4452 63.4143 14.5995L63.2676 15.3497C63.2308 15.5017 63.1322 15.601 63.0152 15.5916C62.9519 15.5857 62.884 15.5788 62.8219 15.5685C62.7586 15.5626 62.6954 15.5568 62.6286 15.5454C62.5653 15.5395 62.4974 15.5326 62.4342 15.5267C62.371 15.5209 62.303 15.5139 62.2398 15.5081C62.1249 15.4898 62.0631 15.3754 62.0858 15.22L62.2335 14.4653C62.2714 14.3087 62.3689 14.214 62.4918 14.2201C62.555 14.2259 62.6229 14.2329 62.6851 14.2432C62.7483 14.249 62.8162 14.256 62.8784 14.2663C62.9416 14.2721 63.0095 14.2791 63.0717 14.2894C63.1396 14.2963 63.2028 14.3022 63.2661 14.308ZM60.2779 15.2322L60.1376 15.9557C61.4568 16.0523 62.7636 16.1792 64.0618 16.3418C65.3412 16.4999 66.6167 16.6949 67.8798 16.92C69.1336 17.1429 70.3845 17.3982 71.6315 17.6904C72.8748 17.977 74.1095 18.2994 75.3471 18.6509C75.9606 18.8278 76.5684 19.0079 77.1693 19.1959C77.7749 19.3851 78.3737 19.582 78.9713 19.7834C79.5679 19.9893 80.1634 20.1996 80.7521 20.4178C81.3454 20.637 81.9319 20.8641 82.5173 21.0957C83.0474 21.3092 83.5717 21.526 84.095 21.7472C84.6218 21.9741 85.1429 22.2043 85.6618 22.4434C86.1855 22.6837 86.7033 22.9274 87.219 23.1799C87.7393 23.4336 88.2529 23.6951 88.7653 23.9611C89.8906 24.5505 90.9849 25.1655 92.0351 25.7983C93.1149 26.4524 94.1543 27.1299 95.1474 27.8341C96.1713 28.5551 97.1572 29.3096 98.0876 30.0885C99.0511 30.8943 99.9674 31.7314 100.826 32.6017C101.896 33.6844 103.203 34.8194 104.754 35.9944C106.375 37.2246 108.26 38.4994 110.412 39.8154C112.651 41.1855 115.166 42.5891 117.953 44.0161C120.842 45.496 124.013 47.0016 127.451 48.5149C127.639 48.5984 127.828 48.6819 128.017 48.7655C128.205 48.849 128.394 48.9325 128.588 49.0126C128.777 49.0961 128.971 49.1763 129.165 49.2609C129.358 49.3456 129.552 49.4258 129.746 49.5104C132.982 50.8898 136.219 52.1842 139.358 53.3697C142.552 54.5777 145.615 55.6645 148.464 56.6329C151.34 57.6082 153.976 58.4494 156.286 59.1551C158.606 59.8631 160.591 60.4333 162.163 60.861L162.523 59.8878C162.151 59.7835 162.108 59.7733 162.071 59.7642L162.462 58.0839C162.873 57.724 162.91 57.7331 162.947 57.7467C163.212 57.8204 163.245 57.8283 163.283 57.8374L170.154 39.3215C169.767 39.2182 169.724 39.208 169.687 39.1989L170.11 37.408C170.228 37.2898 170.382 37.1282 170.5 37.01C170.892 37.1144 170.93 37.1235 170.967 37.1326L171.393 35.9906C169.753 35.556 167.68 34.9977 165.238 34.3217C162.81 33.6491 160.037 32.8645 156.998 31.9826C153.993 31.1087 150.75 30.1443 147.362 29.1067C144.033 28.0884 140.585 27.0081 137.128 25.8829C136.921 25.8139 136.713 25.7493 136.51 25.6815C136.308 25.6136 136.1 25.549 135.898 25.4811C135.695 25.4132 135.492 25.3498 135.289 25.2819C135.087 25.214 134.885 25.1461 134.681 25.0827C131.006 23.8717 127.605 22.7032 124.488 21.5894C121.481 20.5163 118.759 19.498 116.317 18.5333C113.974 17.6115 111.906 16.7467 110.106 15.9466C108.387 15.1805 106.918 14.47 105.698 13.8199C104.72 13.2993 103.691 12.7852 102.615 12.2788C101.581 11.7871 100.499 11.303 99.3763 10.8277C98.2897 10.366 97.1681 9.90533 96.0092 9.45455C94.8832 9.01173 93.7153 8.5777 92.5218 8.14693C91.978 7.94908 91.4331 7.75571 90.8871 7.56681C90.3411 7.37791 89.7951 7.18901 89.248 7.00458C88.7009 6.82015 88.1528 6.6402 87.6046 6.46024C87.0564 6.28028 86.5072 6.1048 85.9569 5.93378C85.3513 5.74466 84.7409 5.5544 84.1249 5.36747C83.5135 5.18168 82.901 5.00037 82.2828 4.82239C81.6692 4.64554 81.0463 4.46643 80.4269 4.29292C79.8076 4.11941 79.1825 3.94923 78.5527 3.77792C77.2873 3.43864 76.0197 3.10829 74.7525 2.79697C73.4864 2.48118 72.2113 2.18214 70.9434 1.89431C69.6614 1.60307 68.3751 1.32973 67.0819 1.06418C65.7746 0.795233 64.4583 0.543032 63.1351 0.298638L62.978 1.11262L62.9917 1.09701C63.6186 1.11614 63.6854 1.12758 63.7522 1.13901C63.8191 1.15045 63.8859 1.16189 63.9481 1.1722L63.9486 2.27993C63.4277 2.4805 63.3608 2.46906 63.294 2.45762C63.0313 2.413 62.9645 2.40157 62.8976 2.39013L62.646 2.85466C63.1197 2.9314 63.5876 3.01147 64.0602 3.09268C64.5281 3.17275 64.995 3.2573 65.4571 3.34071C65.9192 3.42411 66.3803 3.512 66.8413 3.59988C67.3024 3.68776 67.7576 3.77897 68.2176 3.87132C68.3409 4.01948 68.5024 4.21478 68.6257 4.36293C68.0991 7.09448 67.3973 10.7351 66.8706 13.4666C66.7768 13.6285 66.6464 13.8384 66.5526 14.0003C65.7234 14.0363 65.2685 13.9641 64.8115 13.9009C64.3544 13.8376 63.8927 13.7733 63.4334 13.7189C62.9695 13.6635 62.5056 13.6081 62.0406 13.5571C61.5709 13.505 61.1037 13.463 60.6318 13.4198L60.4959 14.1253L60.5097 14.1097C61.1343 14.0762 61.2022 14.0832 61.2655 14.089C61.3287 14.0949 61.3966 14.1018 61.4599 14.1077L61.465 15.155C60.947 15.3847 60.8791 15.3777 60.8159 15.3719C60.5525 15.3507 60.4893 15.3449 60.4213 15.338C60.3979 15.3938 60.3194 15.266 60.2779 15.2322Z" fill="#0A0909"/>
<path d="M13.8124 25.3664C9.8011 25.3664 7.34136 22.4904 7.34136 18.1007C7.34136 13.7867 9.8011 10.9107 14.1151 10.9107C16.5748 10.9107 19.2995 11.8946 21.3808 13.3705V6.78593C19.0724 5.72636 16.3099 5.00736 13.4339 5.00736C5.63847 5.00736 0 10.6837 0 18.8197C0 26.4638 4.88163 31.5725 12.4879 31.5725C17.4452 31.5725 21.1537 29.4533 23.5756 27.0693L20.5104 22.831C18.921 24.1176 16.4613 25.3664 13.8124 25.3664Z" fill="black"/>
<path d="M61.9067 11.8568C59.8254 11.8568 57.6305 13.2191 56.1925 15.7545V11.8189L49.7594 13.1434V30.74H56.4574V20.5226C57.4035 19.0846 58.8793 18.1007 61.3012 18.1007C62.1338 18.1007 63.1933 18.2521 64.1015 18.5548V12.1217C63.3825 11.9325 62.5122 11.8568 61.9067 11.8568Z" fill="black"/>
<path d="M70.1249 10.6458C72.2819 10.6458 73.9848 9.16998 73.9848 7.05083C73.9848 5.0452 72.2819 3.41799 70.1249 3.41799C67.9679 3.41799 66.3407 5.0452 66.3407 7.05083C66.3407 9.16998 67.9679 10.6458 70.1249 10.6458ZM66.8327 30.74H73.5307V11.8189L66.8327 13.1434V30.74Z" fill="black"/>
<path d="M86.5076 31.5725C92.2217 31.5725 95.5519 28.9992 95.5519 24.9501C95.5519 19.9928 90.4432 19.236 86.5833 18.744C84.502 18.4791 83.2532 18.4413 83.2532 17.5331C83.2532 16.587 84.5398 16.2465 86.4319 16.2465C88.9673 16.2465 92.1082 16.9655 94.0003 18.1007V13.1434C91.919 12.3109 88.816 11.7054 86.3562 11.7054C80.5664 11.7054 77.1606 14.203 77.1606 18.4791C77.1606 22.6796 80.9827 23.9284 85.5237 24.496C88.0591 24.7988 89.4214 24.6852 89.4214 25.707C89.4214 26.653 88.1726 26.9179 86.3562 26.9179C83.5559 26.9179 80.415 26.0854 78.258 25.0637L76.593 28.9992C78.8257 30.2859 82.6099 31.5725 86.5076 31.5725Z" fill="black"/>
<path d="M111.485 25.3664C107.474 25.3664 105.014 22.4904 105.014 18.1007C105.014 13.7867 107.474 10.9107 111.788 10.9107C114.247 10.9107 116.972 11.8946 119.053 13.3705V6.78593C116.745 5.72636 113.982 5.00736 111.106 5.00736C103.311 5.00736 97.6725 10.6837 97.6725 18.8197C97.6725 26.4638 102.554 31.5725 110.16 31.5725C115.118 31.5725 118.826 29.4533 121.248 27.0693L118.183 22.831C116.594 24.1176 114.134 25.3664 111.485 25.3664Z" fill="black"/>
<path d="M126.962 10.6458C129.119 10.6458 130.822 9.16998 130.822 7.05083C130.822 5.0452 129.119 3.41799 126.962 3.41799C124.805 3.41799 123.178 5.0452 123.178 7.05083C123.178 9.16998 124.805 10.6458 126.962 10.6458ZM123.67 30.74H130.368V11.8189L123.67 13.1434V30.74Z" fill="black"/>
<path d="M147.696 11.8568C145.312 11.8568 142.891 12.8028 141.263 14.6192V11.8189L134.83 13.1434V30.74H141.528V19.1225C142.436 18.1007 143.61 17.4196 145.01 17.4196C147.015 17.4196 147.924 19.0468 147.924 21.8471V30.74H154.584V19.7279C154.584 14.5436 151.556 11.8568 147.696 11.8568Z" fill="black"/>
<path d="M174.859 5.31009L171.302 0.92041L163.393 7.6563L165.853 10.7972L174.859 5.31009ZM175.805 24.988C174.14 25.7827 172.134 26.4638 170.129 26.4638C167.215 26.4638 165.285 25.4042 164.49 23.4743H177.092C177.47 22.6039 177.735 21.393 177.735 19.9928C177.735 15.0734 174.064 11.7054 168.615 11.7054C162.333 11.7054 157.641 16.1708 157.641 22.0363C157.641 27.8261 162.068 31.5725 168.615 31.5725C172.702 31.5725 175.881 30.0588 178 28.2802L175.805 24.988ZM168.577 16.2465C170.507 16.2465 171.68 17.3817 171.945 19.0846H164.339C165.058 17.079 166.912 16.2465 168.577 16.2465Z" fill="black"/>
<path d="M25.5339 18.452C26.5235 14.4873 28.2631 10.3585 31.2258 6.79018C32.5495 5.18401 34.1172 3.90008 36.1463 3.25563C38.0586 2.64466 39.8363 3.19809 41.5991 3.8317C42.7402 4.23855 43.5542 4.91622 44.218 5.95313C46.2798 9.13232 47.1892 12.7048 47.7696 16.4095C48.3685 20.3113 47.7478 23.9299 45.6252 27.2955C44.407 29.2257 42.8596 30.8454 40.8959 32.0277C39.8005 32.7083 38.6264 33.0699 37.3636 33.1659C36.4366 33.2417 35.7815 32.898 35.7008 31.9977C35.1174 26.3837 34.8599 20.8029 37.5509 15.5793C37.8211 15.0212 38.1616 14.5315 38.5338 14.0201C38.7591 13.7026 38.8942 13.4235 38.8572 13.0293C38.8437 12.8055 38.8619 12.5599 39.0355 12.3711C39.3727 12.0468 39.4911 11.7093 39.2502 11.2216C39.0913 10.8877 39.2966 10.677 39.6524 10.5499C40.459 10.2303 40.5924 9.81257 40.1509 9.06617C39.8615 8.54184 39.8562 8.1259 40.3204 7.71466C40.8896 7.18476 40.8808 6.49153 40.3962 6.12435C39.8146 5.68373 38.6202 5.70957 38.2965 6.25769C38.0562 6.65541 37.8409 6.91948 37.308 6.95825C36.8604 6.98527 36.727 7.40297 36.759 7.82391C36.7911 8.24484 36.6342 8.49217 36.1815 8.54592C35.617 8.60642 35.4451 8.93394 35.7345 9.45828C36.0021 9.95088 35.9856 10.3351 35.4513 10.6779C34.8268 11.0592 35.0626 11.5735 35.4621 11.9524C35.8399 12.2996 35.8484 12.5502 35.4527 12.8912C35.057 13.2323 35.0089 13.6382 35.2914 14.0506C35.6225 14.4998 35.5743 14.9057 35.1469 15.2685C34.788 15.561 34.7548 15.8868 34.9839 16.2892C35.2297 16.7501 35.1915 17.1026 34.6505 17.3335C34.2313 17.5041 34.0929 17.9486 34.2786 18.2876C34.5847 18.8703 34.3444 19.2681 33.9922 19.6725C33.7034 20.0335 33.5266 20.3878 33.7724 20.8487C33.9314 21.1827 33.813 21.5202 33.5275 21.7158C33.1468 21.9766 33.0551 22.3191 33.3159 22.6998C33.647 23.149 33.6623 23.5115 33.1547 23.8592C32.8692 24.0549 32.7875 24.3439 33.0633 24.6444C33.4845 25.0551 33.4414 25.4343 33.0624 25.8338C32.8204 26.0928 32.6585 26.3669 33.0513 26.6339C33.1699 26.7391 33.3221 26.9611 33.3021 27.0681C33.0888 27.9135 33.6055 28.7016 33.4724 29.5619C33.4075 29.9094 33.4061 30.2135 33.6284 30.504C33.8073 30.731 33.8376 31.0133 33.8094 31.3124C33.7838 33.078 33.2345 33.501 31.5287 33.1547C29.9566 32.8333 28.8986 31.8334 27.9557 30.6614C25.2656 27.1435 24.7034 23.1932 25.5339 18.452Z" fill="white"/>
</svg>
