<svg width="29" height="29" viewBox="0 0 29 29" fill="none" xmlns="http://www.w3.org/2000/svg">
<path d="M14.2901 0C6.40194 0 0 6.40194 0 14.2901C0 22.1782 6.40194 28.5801 14.2901 28.5801C22.1782 28.5801 28.5801 22.1782 28.5801 14.2901C28.5801 6.40194 22.1782 0 14.2901 0ZM16.6622 19.7774C14.7188 18.72 12.5752 17.8626 10.6032 16.8337C8.74551 18.0912 6.3162 17.1766 5.68744 15.4618C4.8872 13.2898 6.51626 10.7461 9.40286 11.232C9.88872 11.3177 10.2317 11.5749 10.689 11.8322C12.661 10.8604 14.6044 9.86014 16.6622 8.97415C16.6622 6.88781 18.4056 5.173 20.8063 5.80176C24.1216 6.65916 23.6357 12.0894 19.6631 11.9179C18.8057 11.8893 18.4056 11.6321 17.6911 11.0891C15.7476 12.0322 13.7756 12.9754 11.8607 13.9471C11.5749 14.8902 12.5181 15.1475 13.1468 15.4618C14.5187 16.1478 16.3192 16.8623 17.4624 17.5768C18.0912 17.3195 18.4627 16.948 19.0629 16.8337C21.1207 16.3764 23.007 17.7768 23.0641 19.7774C23.1785 23.9215 16.4907 23.9787 16.6622 19.7774Z" fill="white"/>
</svg>
